<svg width="6" height="8" viewBox="0 0 6 8" xmlns="http://www.w3.org/2000/svg">
<path d="M2.25323 5.33333C2.25323 4.93166 2.33592 4.60065 2.50129 4.34031C2.67356 4.07252 2.92162 3.78243 3.24548 3.47001C3.49354 3.23199 3.67614 3.02743 3.79328 2.85635C3.91731 2.67782 3.97933 2.47699 3.97933 2.25384C3.97933 1.94142 3.86219 1.68852 3.62791 1.49512C3.39363 1.30172 3.0801 1.20502 2.68734 1.20502C1.94315 1.20502 1.38157 1.4914 1.00258 2.06416L0 1.36123C0.296296 0.922362 0.678725 0.587634 1.14729 0.357043C1.61585 0.119014 2.1671 0 2.80103 0C3.57278 0 4.18605 0.182241 4.64083 0.546723C5.1025 0.903766 5.33333 1.39842 5.33333 2.03068C5.33333 2.33566 5.2851 2.60344 5.18863 2.83403C5.09905 3.06462 4.9888 3.26174 4.85788 3.42538C4.72696 3.58159 4.55469 3.76383 4.34108 3.97211C4.07924 4.22501 3.88286 4.44816 3.75194 4.64156C3.62791 4.83496 3.56589 5.06555 3.56589 5.33333H2.25323ZM2.91473 8C2.67356 8 2.47373 7.91818 2.31525 7.75453C2.16365 7.58345 2.08786 7.37517 2.08786 7.12971C2.08786 6.88424 2.16365 6.67968 2.31525 6.51604C2.47373 6.35239 2.67356 6.27057 2.91473 6.27057C3.14901 6.27057 3.34195 6.35239 3.49354 6.51604C3.65202 6.67968 3.73127 6.88424 3.73127 7.12971C3.73127 7.37517 3.65202 7.58345 3.49354 7.75453C3.34195 7.91818 3.14901 8 2.91473 8Z"/>
</svg>
