<svg width="16" height="16" viewBox="0 0 16 16" fill="none" xmlns="http://www.w3.org/2000/svg">
<path fill-rule="evenodd" clip-rule="evenodd" d="M2.71397 13.602L2.91436 13.174L3.04341 12.7699L3.14191 12.4065L3.31172 12.0295L3.02643 12.1382L2.72077 12.1789L2.44567 12.1552L2.12302 12.094L1.8649 12.0431L2.02453 11.588L2.18415 11.2687L2.36755 11.0344L2.5951 10.8238H2.35057L2.11623 10.7729L1.65094 10.6132L1.19923 10.4536L0.666016 10.3517L0.778094 10.2159L0.920737 10.1174L1.27395 10.0155L1.70188 9.98833L2.16717 10.0155L2.73775 10.0393L3.237 9.98153L3.64795 9.91361L4.16079 9.89663L4.73476 9.87965L5.39364 9.82191L6.1578 9.65209L6.8914 9.38379L6.49743 9.60115L6.12384 9.86266L5.46836 10.4706L4.91137 11.1431L4.40532 11.8427L4.00116 12.3997L3.59701 12.9023L3.17587 13.3167L2.71397 13.602Z" fill="#90C2E5"/>
<path fill-rule="evenodd" clip-rule="evenodd" d="M0.682617 10.3346L0.94413 10.1003L1.26338 9.98141L1.6098 9.97122L1.99019 9.99839L2.64567 10.0391L2.85624 10.0324L3.12794 9.99839L3.437 9.94744L3.69851 9.93726L3.68153 9.98141L3.64757 10.0154L3.5321 10.0663L3.15851 10.1241H2.20075H1.73546L1.60301 10.1308L1.55886 10.141L1.55206 10.1478V10.158V10.175L1.55886 10.1818L1.59282 10.1988L1.71169 10.2259L2.08189 10.2429L2.41812 10.2667L2.53699 10.2837L2.56076 10.3007L2.57095 10.3108V10.3176L2.56076 10.3346L2.54378 10.3414L2.49623 10.3584L2.33321 10.3754L1.92226 10.3584L1.60301 10.3516L1.55206 10.3584L1.5181 10.3686H1.50791L1.50112 10.3754V10.3856L1.50791 10.3924V10.4093L1.5249 10.4263L1.55886 10.4433L1.59282 10.4535L1.84415 10.4603L2.6117 10.4093L3.21964 10.3686L3.41323 10.3754L3.47096 10.3856L3.48795 10.3924L3.49813 10.4093L3.44719 10.4603L3.36228 10.5044L3.10077 10.5452L2.4351 10.5622H2.16679L2.08868 10.569L2.08189 10.5792H2.07509V10.5859L2.08189 10.6301L2.11585 10.6641L2.18377 10.681L2.25849 10.6878L2.67284 10.681L2.96492 10.6641L3.01586 10.6709L3.04982 10.681L3.06681 10.698V10.715L2.83926 10.8746L2.58793 11.109L2.40114 11.3297L2.37736 11.3637L2.36717 11.3875V11.3943L2.37736 11.4045H2.38415L2.64567 11.2278L3.00907 11.0173L3.3453 10.8746L3.45398 10.8475H3.47096H3.48795L3.49813 10.8644V10.8746V10.8814L3.47096 10.9086L3.36228 10.9833L3.01586 11.2109L2.4351 11.5811L2.24151 11.7407L2.18377 11.8086L2.17358 11.8324V11.8596L2.19057 11.8765L2.23472 11.8833L2.3434 11.8494L2.64567 11.7067L2.8902 11.5878L2.99209 11.5573L3.02605 11.5471L3.04982 11.5573L3.06001 11.5641V11.5811L3.04982 11.6082L3.02605 11.632L2.87322 11.7746L2.71359 11.9343L2.68982 11.9614V11.9682V11.9784V11.9852H2.7068H2.71359H2.73737L2.88341 11.9954L3.04982 11.9343L3.41323 11.7339L3.69851 11.5641L3.81739 11.5301L3.86833 11.5233L3.90909 11.5301V11.5403V11.5471L3.8921 11.5743L3.85135 11.632L3.67474 11.8154L3.50493 12.0022L3.36908 12.172L3.32832 12.2467L3.32153 12.2705V12.3045L3.35209 12.3384L3.37926 12.3486L3.42002 12.3554L3.61361 12.155L3.69172 12.0599L3.74946 12.0022L3.77323 11.9852H3.79021H3.8004L3.81739 11.9954L3.82418 12.0192L3.8072 12.0701L3.79021 12.1211L3.7087 12.2467L3.46417 12.5422L3.22643 12.8275L3.19247 12.8784L3.17549 12.9192L3.18568 12.9464L3.20266 12.9633L3.22643 12.9532L3.2536 12.9464L3.32153 12.8852L3.49813 12.6916L3.97701 12.0599L4.29626 11.632L4.58494 11.2788L4.71061 11.1497L4.80231 11.0682L4.84306 11.041H4.87703L4.90419 11.0512L4.92118 11.0852L4.42192 11.7814L4.01777 12.3486L3.61361 12.8716L3.19247 13.2928L2.75435 13.5849L3.28756 12.0769L3.30455 12.0294L2.97511 12.138L2.63888 12.1618L2.26868 12.1211L1.86452 12.043L2.01396 11.6082L2.16679 11.2686L2.3434 11.0241L2.58793 10.8475L2.28227 10.8135L1.92226 10.698L1.17168 10.4365L0.876205 10.3516L0.760732 10.3346H0.682617Z" fill="#7393CC"/>
<path fill-rule="evenodd" clip-rule="evenodd" d="M0.641602 10.3348L0.750282 10.1922L0.903115 10.0903L1.26312 9.98161L1.69445 9.96462L2.16653 9.9884L2.73711 10.0156L3.23297 9.95444L3.6541 9.88991L4.17034 9.87292L4.74091 9.85594L5.3896 9.78802L6.15716 9.62839L6.89076 9.35669V9.38046L6.87378 9.39744L6.47642 9.6182L6.10622 9.87972L5.45753 10.4775L4.89375 11.1567L4.43185 11.8699L4.0277 12.4269L3.62354 12.9296L3.19221 13.3439L2.72013 13.6394H2.69635H2.67937V13.6122L2.89334 13.1639L3.01221 12.7598L3.1141 12.4201L3.24655 12.0805L2.97824 12.1722L2.68956 12.2096L2.42805 12.1824L2.12238 12.1315L1.85407 12.0805V12.0567L2.0137 11.6016L2.17333 11.262L2.33295 11.0514L2.52654 10.868L2.08163 10.8069L1.66049 10.6575L1.1952 10.4775L0.66198 10.3756L0.644999 10.3586L0.641602 10.3348ZM0.71632 10.3348L1.22916 10.4367L1.66049 10.5963L2.11559 10.756L2.34993 10.8001H2.58767H2.61144V10.8171V10.8409L2.39408 11.0446L2.20729 11.279L2.05785 11.5813L1.90502 12.0194L2.12238 12.0635L2.43484 12.1213L2.70314 12.1382L3.00541 12.0975L3.28391 11.9956H3.31108V12.0194L3.15145 12.393L3.04277 12.7326L2.93409 13.1096L2.75749 13.4968L3.23297 13.2285L3.62693 12.8243L4.01411 12.342L4.39449 11.8122L4.83261 11.2043L5.3047 10.6065L5.84471 10.0529L6.46622 9.58084L5.8515 9.75745L5.213 9.85934L4.19411 9.91708L3.68127 9.93406L3.26693 10.002L2.76088 10.0597L2.19031 10.0359L1.742 10.0088L1.33784 10.0258L0.998211 10.1107L0.86236 10.1956L0.71632 10.3348Z" fill="white"/>
<path fill-rule="evenodd" clip-rule="evenodd" d="M0.112305 6.02145L0.842505 5.90258L1.50818 5.85503L2.08894 5.87881L2.57801 6.00447L2.32668 5.77013L2.15007 5.47465L2.06517 5.16219L2.08894 4.89389L2.24177 4.81577L2.41159 4.7852L2.78857 4.81577L3.15877 4.94483L3.50519 5.13842L3.46443 4.77502L3.4033 4.19425L3.43726 3.93274L3.53915 3.72217L3.75991 3.99047L3.94331 4.31312L4.26256 5.07049L4.592 5.84484L4.79238 6.25919L5.03691 6.63618L5.5022 7.19317L6.0558 7.64827L6.68751 8.00148L5.86221 7.72299L5.03012 7.50563L4.47313 7.40374L3.90256 7.36298L3.52217 7.37657L3.15198 7.4377L2.61197 7.6211L2.35045 7.72299L2.08215 7.8011L1.74592 7.8079L1.41648 7.75695V7.75016V7.73318L1.44365 7.69921L1.50818 7.61431L1.7629 7.40374L2.08215 7.19996L2.39461 7.06751L2.17385 7.05732L1.96328 7.00637L1.43346 6.80599L0.811938 6.46976L0.112305 6.02145Z" fill="#93C4E6"/>
<path fill-rule="evenodd" clip-rule="evenodd" d="M1.41674 7.75016L1.42353 7.7162L1.44391 7.68223L1.51863 7.60412L1.72919 7.42751L2.276 7.10147L1.82089 7.00637L1.34202 6.78901L0.80201 6.45957L0.15332 6.01466L0.812199 5.90258L1.39296 5.84484L1.97373 5.87201L2.53751 5.9807L2.32694 5.74296L2.17411 5.49842L2.0892 5.21314L2.08241 4.91087L2.21826 4.82596L2.3677 4.792L2.74808 4.81577L3.14205 4.93464L3.51564 5.12823L3.43752 4.75124L3.41375 4.37086L3.43073 3.98368L3.47149 3.83085L3.53941 3.72217L3.57338 3.74934L3.60734 3.79009L3.70923 3.92594L3.95376 4.38105L4.28999 5.13842L4.58547 5.90258L4.57528 5.91956V5.92975H4.5583H4.55151L4.54132 5.91956L4.51754 5.89579L4.38169 5.67843L4.05225 4.9686L3.89263 4.6086L3.83489 4.50671L3.81791 4.47275H3.80772V4.46256L3.79074 4.45576L3.78395 4.44558H3.77376V4.45576V4.46256L3.76696 4.47954L3.77376 4.5135L3.81791 4.75124L3.85866 5.00257V5.03653L3.85187 5.04332V5.05351H3.84168H3.83489L3.80772 5.01955L3.78395 4.98558L3.76696 4.94483L3.733 4.81577L3.66508 4.48973L3.59715 4.1535L3.58017 4.09236L3.56319 4.05161L3.54621 4.04142L3.53941 4.03463H3.53262L3.52243 4.04142L3.51564 4.08557L3.50545 4.13651V4.28595L3.55639 4.68332L3.6413 5.07049L3.68206 5.22332L3.71602 5.31502L3.73979 5.36597V5.38295L3.733 5.38974L3.72621 5.39993H3.70923L3.65828 5.38974L3.52243 5.3388L3.34583 5.2471L2.95865 5.07049L2.80582 5.03653L2.74808 5.04332L2.71412 5.07049V5.09427V5.10445L2.7311 5.12144L2.83299 5.19615L3.1862 5.40672L3.69904 5.70899L3.79074 5.77692L3.84168 5.84484L3.85866 5.87201V5.89579L3.85187 5.91956L3.83489 5.93654H3.8247H3.80772L3.76696 5.92975L3.64809 5.87201L3.32884 5.67843L2.94846 5.44748L2.81601 5.38974L2.77185 5.38295L2.76506 5.38974H2.75487L2.74808 5.44069L2.75487 5.49163L2.81601 5.59352L2.86695 5.66824L2.88393 5.7022V5.73616V5.75314L2.87374 5.77013L2.85676 5.77692H2.83978L2.8228 5.77013L2.78883 5.73616L2.59525 5.48484L2.38468 5.22332L2.29977 5.14521L2.28279 5.13842H2.2692L2.25222 5.14521L2.23524 5.17917V5.23012L2.2692 5.35578L2.46958 5.65805L2.7311 5.94673L2.85676 6.05541L2.96544 6.11315L2.97563 6.13013L2.98242 6.14032L2.97563 6.14711L2.96544 6.1573L2.95865 6.1641H2.93148H2.88393L2.49676 6.11315L1.66806 6.02145L1.27409 6.03164L0.961636 6.12334L0.954843 6.14032L0.944653 6.1573L0.954843 6.17428L0.961636 6.18108L0.978617 6.19127L1.01937 6.20825L1.34881 6.23202L1.76995 6.27617L1.94656 6.31013L2.07562 6.38485L2.05524 6.44259L2.02467 6.45957L1.97373 6.47655L1.71221 6.48674H1.55938L1.44391 6.50372L1.42353 6.51052L1.41674 6.5207L1.40994 6.54448V6.56146L1.42353 6.58523L1.46768 6.63618L1.51863 6.67014L1.57636 6.69731L1.76316 6.75505L2.20807 6.85694L2.67336 6.96562L2.73789 6.98939L2.75487 6.99958L2.77185 7.01656V7.03354L2.76506 7.04034L2.74808 7.05732L2.72091 7.0743L2.37788 7.15921L2.19109 7.23392L2.16732 7.25091L2.15033 7.27808L2.14014 7.29506L2.15033 7.31204L2.16732 7.346L2.1843 7.35279H2.20807H2.34392H2.46958L2.50355 7.36298L2.52053 7.36978L2.52732 7.37657L2.53751 7.38676V7.39355L2.52732 7.40374L2.52053 7.41053L2.47638 7.42751L2.42883 7.44449L2.09939 7.51242L1.76995 7.58714L1.71901 7.60412L1.67825 7.6211L1.66806 7.63129V7.63808V7.64827L1.67825 7.65506L1.74618 7.67204L1.83788 7.68223L2.0892 7.63808L2.72091 7.47166L3.30507 7.32902L3.39677 7.31204H3.47149L3.50545 7.33581V7.37657L3.16922 7.4377L2.75487 7.56336L2.40166 7.68223L2.04165 7.77393L1.70203 7.8079L1.41674 7.75016Z" fill="#7393CC"/>
<path fill-rule="evenodd" clip-rule="evenodd" d="M0.0849609 6.00492H0.112132L0.726858 5.90303L1.34838 5.8351H1.8748L2.34688 5.90303L2.40462 5.92001L2.38764 5.90303L2.28236 5.75699L2.19066 5.61434L2.04122 5.21698V5.04037L2.06839 4.86376V4.84678L2.24839 4.76188L2.45217 4.7381L2.72048 4.76188L2.98199 4.8298L3.47106 5.07773L3.4303 4.78565L3.38615 4.49017L3.36917 4.19809L3.40313 3.93658L3.51521 3.71582H3.53219L3.57294 3.71922L3.80049 3.99092L3.98389 4.33055L4.32352 5.08792L4.66315 5.86567L4.86693 6.26983L5.11146 6.64681L5.57335 7.19361L6.12015 7.64872L6.74507 8.00533V8.02231V8.04608V8.06306H6.7213L5.90279 7.79476L5.0775 7.56721L4.52051 7.46532L3.91257 7.3872L3.53558 7.40418L3.16199 7.47211L2.62538 7.65551L2.36387 7.7574L2.08537 7.82532L1.74574 7.8423L1.40611 7.78457L1.37894 7.7574V7.71664L1.40272 7.67249L1.50461 7.574L1.84424 7.3023L2.22462 7.09173L1.84424 7.00682L1.40611 6.83021L0.784596 6.49058L0.0849609 6.04567V6.02869V6.00492ZM0.186849 6.03888L0.866106 6.46002L1.45366 6.77927L1.98688 6.98305L2.18726 7.0238H2.39783H2.425V7.05097H2.40802L2.19745 7.13588L1.9631 7.27173L1.55895 7.574L1.47404 7.6657V7.69287L1.79329 7.74381H2.11254L2.37406 7.67589L2.62878 7.574L3.13482 7.39739L3.47445 7.32947L3.81408 7.30569L4.33031 7.32947L4.83296 7.40418L5.57675 7.58079L6.30695 7.80834L5.78053 7.47211L5.31524 7.03399L4.93146 6.52794L4.53749 5.79435L4.2522 5.07773L3.91257 4.34753L3.74276 4.04186L3.5254 3.77356L3.44049 3.97733L3.41671 4.21847L3.47445 4.76867L3.5254 5.12867L3.50841 5.14566L3.00237 4.89433L2.74085 4.81961L2.46236 4.79244L2.27896 4.81961L2.12613 4.89433L2.09896 5.05396V5.21358L2.23481 5.58378L2.32651 5.71963L2.43858 5.8385L2.54727 5.9302V5.94718L2.57104 5.96416L2.58802 5.98114V5.99812H2.56425L2.45557 5.95397L2.3367 5.92001L1.8748 5.88944H1.34838L0.186849 6.03888Z" fill="white"/>
<path fill-rule="evenodd" clip-rule="evenodd" d="M8.76947 0.234619L8.82721 0.883309L8.76947 1.59313L8.62004 2.3505L8.42305 3.15882L8.17852 4.16072L7.99512 5.19659L7.9204 6.26642L7.93738 6.80643L8.0121 7.34644L7.77776 6.47019L7.42115 5.63471L7.06793 4.99621L6.72491 4.4562L6.41924 3.97732L6.20867 3.54599L5.94716 3.05014L5.57017 2.55088L5.26451 2.14673L5.01318 1.74257L4.87054 1.33162L4.86035 1.12784L4.9045 0.927461L5.31545 1.33162L5.7298 1.61011L6.14075 1.90219L6.32755 2.08899L6.48038 2.29956L6.51434 1.93616L6.57887 1.58294L6.73849 1.17879L7.00001 0.682928L7.21058 0.883309L7.44832 1.12105L7.64191 1.35539L7.78455 1.63389L7.89323 2.01427L8.08682 1.56596L8.30758 1.18897L8.5589 0.757647L8.76947 0.234619Z" fill="#A1CBEB"/>
<path fill-rule="evenodd" clip-rule="evenodd" d="M4.89431 0.951017L5.23055 1.27027L5.65508 1.55895L6.12377 1.89518L6.31736 2.07179L6.4634 2.26538L6.53812 1.80348L6.67396 1.35517L6.97623 0.733655L7.00001 0.682711L7.30567 0.951017L7.56379 1.25668L7.77776 1.61669L7.89323 2.01405L8.1038 1.52499L8.42305 0.961206L8.76268 0.353271L8.82042 0.859318L8.81023 1.37216L8.71853 1.88839L8.57588 2.50991L8.41626 3.16879L8.34833 3.11785L8.32456 3.05671L8.33135 2.98879L8.35852 2.88011L8.45022 2.37406L8.44003 2.35708L8.42305 2.35029H8.41626H8.39928L8.3755 2.39104L8.34154 2.45217L8.18871 2.83935L8.05286 3.19256L7.99512 3.29445L7.97814 3.31143L7.96795 3.31823L7.95097 3.32841H7.94418L7.9204 3.31823L7.91021 3.31143L7.89323 3.28426V3.2503L7.91021 3.16879L7.93738 3.04992L8.18871 2.425L8.40607 1.8782L8.474 1.67782L8.48418 1.59291V1.54197L8.44003 1.46725L8.42305 1.44008L8.40607 1.43329L8.39249 1.44008L8.36531 1.45027L8.33135 1.49782L8.24644 1.67782L8.15474 1.91217L8.0121 2.27557L7.93738 2.40123L7.90342 2.425L7.86946 2.43519H7.85248L7.8355 2.425L7.80832 2.37406L7.75059 2.19066L7.67587 1.94613L7.6487 1.90198L7.62492 1.86801L7.59096 1.86122L7.56379 1.86801L7.557 1.8782V1.88839L7.54681 1.91217L7.54002 1.98009L7.557 2.21443L7.56379 2.60161L7.557 2.66954L7.53323 2.73067L7.50606 2.75444H7.4653L7.45511 2.74425L7.43813 2.73067L7.41435 2.66954L7.36341 2.47595L7.25473 1.91217L7.15963 1.40612L7.11209 1.25668L7.1019 1.22951L7.09511 1.21253H7.08491H7.07812L7.03397 1.22951L7.02718 1.25668L7.01699 1.28725L7.0102 1.50801L7.1019 2.19066L7.1868 2.78841V2.98199L7.16982 3.03973L7.15963 3.05671L7.14605 3.0669L7.06114 2.94124L7.00001 2.77142L6.95925 2.39104L6.92529 2.12953L6.9151 2.08877L6.89133 2.05481L6.84038 2.03783L6.81661 2.065L6.78944 2.09556L6.76567 2.19745L6.74868 2.45897L6.73849 2.60161L6.71472 2.71369L6.69774 2.74425L6.68076 2.75444H6.66378L6.6468 2.74425L6.60604 2.71369L6.32755 2.32312L5.96414 2.01405L5.94037 2.03783V2.07179L5.94716 2.09556L6.03207 2.28236L6.37849 2.7952L6.68076 3.2503L6.76567 3.42011L6.78265 3.47785V3.49483L6.77246 3.51181L6.75548 3.522H6.74868H6.73849L6.72491 3.50502L6.68755 3.47785L6.53812 3.30124L6.09999 2.67972L5.83169 2.28236L5.60414 1.9699L5.51923 1.8782L5.48527 1.85443L5.46829 1.84424L5.4581 1.83745H5.4513L5.44451 1.84424L5.43432 1.85443V1.86122V1.90198L5.4513 1.96311L5.4581 1.99707L5.47508 2.04802L5.543 2.1567L5.73659 2.43519L5.88942 2.64576L5.99131 2.81218L6.01509 2.88011L6.00829 2.89709L5.99811 2.91407L5.98112 2.92086L5.95735 2.91407L5.87244 2.89029L5.43432 2.35708L5.0879 1.83745L4.88752 1.36536L4.86035 1.15479L4.89431 0.951017Z" fill="#7393CC"/>
<path fill-rule="evenodd" clip-rule="evenodd" d="M4.8699 0.916984H4.89367H4.91065L5.31481 1.31095L5.72916 1.58945L6.11634 1.86115L6.43559 2.20078L6.46955 1.86115L6.53748 1.55209L6.68691 1.14793L6.9688 0.662263H6.99258L7.19296 0.86604L7.4307 1.09359L7.6141 1.32114L7.76693 1.60643L7.85863 1.91889L8.04542 1.52152L8.24581 1.18189L8.49034 0.750567L8.74506 0.227539L8.76883 0.254709L8.82657 0.910192L8.76204 1.62002L8.66694 2.3604L8.46656 3.16872L8.22882 4.16383L8.03524 5.20989L7.96052 6.26953L7.98769 6.80614L8.06241 7.33596V7.36313L7.98769 7.35294L7.75334 6.4767L7.41372 5.64461L7.07409 5.0129L6.73446 4.47289L6.43219 3.99062L6.22162 3.5559L5.96011 3.06683L5.54236 2.56758L5.22991 2.15663L4.97858 1.75247L4.83594 1.34152V1.13095L4.8699 0.916984ZM4.90386 1.37209L5.0533 1.75926L5.29783 2.14644L5.61029 2.52682L5.97369 3.03966L6.12313 3.28419L6.23521 3.54571L6.44577 3.97364L6.74804 4.44572L7.35258 5.41706L7.66504 6.09632L7.90957 6.77557V5.84159L7.98769 4.92799L8.16769 4.02458L8.37826 3.14834L8.57185 2.38418L8.71449 1.66077L8.78242 0.981514L8.74845 0.356598L8.54468 0.8117L8.32732 1.20567L8.10995 1.58266L7.91976 2.02078H7.89259L7.7941 1.65058L7.64806 1.37209L7.45447 1.13774L7.22013 0.900003L7.04352 0.733585L6.75484 1.20567L6.62917 1.59284L6.55446 1.93247L6.52728 2.29588L6.51031 2.31965H6.48313L6.34049 2.10908L6.15369 1.93247L5.71218 1.6336L5.31481 1.36529L4.91065 1.00189L4.88688 1.19548L4.90386 1.37209Z" fill="white"/>
<path fill-rule="evenodd" clip-rule="evenodd" d="M9.43548 7.52965L10.057 6.81304L10.5291 6.12359L10.8925 5.37301L11.0012 5.04357L11.0691 4.70055L11.1472 3.96695L11.1948 3.44393L11.2797 2.94128L11.4393 2.50316L11.66 2.12277L11.8774 1.7356L11.8944 1.75258L11.9046 1.77635L11.9216 1.86126L11.9385 2.08881L11.9453 2.2756L11.9691 2.43523L12.0201 2.77825V3.16883L11.9793 3.52883L11.9216 3.79035L12.037 3.62053L12.2408 3.42694L12.7469 3.04996L13.0661 2.80542L13.2257 2.67976L13.2937 2.6458H13.3514L13.1408 3.25034L13.0321 3.80733L12.9235 4.33036L12.8386 4.55791L12.7129 4.76848L13.2189 4.54772L13.7556 4.38809L14.2956 4.33715L14.5571 4.36432L14.8016 4.43904L14.659 4.73451L14.4824 5.00282L14.0341 5.53264L13.8982 5.69566L14.3024 5.8383L14.7167 5.93L15.1378 6.03189L15.525 6.16435L15.508 6.18133L15.4843 6.19831L15.3892 6.21529L15.1311 6.28322L14.9612 6.35114L14.5299 6.50398L14.085 6.58549L13.4601 6.62964L12.3767 6.72134L11.7619 6.80625L11.154 6.9387L10.2608 7.25116L9.4185 7.68928L8.66113 8.26325L9.43548 7.52965Z" fill="#A0CBEA"/>
<path fill-rule="evenodd" clip-rule="evenodd" d="M13.867 5.67868L13.9757 5.71944L14.2712 5.82132L14.8349 5.97076L15.2459 6.07265L15.3817 6.12359L15.4327 6.14737L15.4666 6.17454L14.9334 6.32737L14.9198 6.33416L14.5972 6.45983L14.261 6.54473L13.6123 6.61945L12.5357 6.67039H12.5255V6.6636V6.65341H12.5357L12.5526 6.63643L12.5764 6.62964L12.7632 6.58549L13.3847 6.49379L14.1183 6.37492L14.3459 6.31718L14.3798 6.3002L14.4036 6.29001V6.27643V6.25944L14.2779 6.23227L14.1081 6.22548L13.7311 6.23227H13.5036H13.344L13.3338 6.21529V6.2085L13.344 6.19831L13.3508 6.19152L13.3949 6.16435L13.4425 6.14737L13.7821 6.08963L14.0436 6.04888L14.1183 6.0217L14.1353 6.01491H14.1421V6.00472V5.99793L14.0742 5.91302L13.9757 5.86208L13.7311 5.81114L13.5953 5.79415L13.5443 5.77717L13.5036 5.76019L13.4934 5.74321L13.5036 5.72623V5.70925L13.5715 5.64472L13.8228 5.44094L14.2032 5.12169L14.3119 4.97905L14.3357 4.91112L14.3187 4.86018L14.0504 5.0198L13.6972 5.22358L13.5613 5.28132L13.5206 5.28811L13.5036 5.28132L13.4934 5.27113L13.5274 5.23716L13.5783 5.17943L13.7142 5.06395L13.8976 4.90093L13.9485 4.8364L13.9587 4.82621V4.81602V4.80923V4.80244L13.9315 4.79225H13.8976L13.8161 4.80923L13.5953 4.91112L13.0315 5.23037L12.6104 5.46471L12.4575 5.54283L12.41 5.55981H12.3828H12.3658V5.54962H12.376L12.393 5.52585L12.4677 5.44773L12.7632 5.22358L13.5885 4.67338V4.66659L13.5783 4.6564L13.5613 4.64961H13.5443L13.4119 4.68357L12.9908 4.8364L12.4745 5.01301L12.3828 5.02999H12.3251L12.3081 5.0198L12.2979 5.01301V5.00282L12.3081 4.99603L12.3149 4.96886L12.4745 4.81602L12.6104 4.59187L12.8209 4.06884L12.9296 3.60355L12.9398 3.4711V3.44393L12.9296 3.43713V3.42694H12.9126H12.9058L12.8957 3.44393L12.8617 3.48808L12.787 3.63072L12.6206 3.9262L12.5255 4.02469L12.4745 4.05186H12.4236H12.4168V4.04167V4.03488V4.00092L12.4507 3.87525L12.5017 3.68846V3.6477L12.4915 3.62053L12.4847 3.60355H12.4575H12.4236L12.3828 3.62053L12.2911 3.68846L12.0636 3.90922L11.8428 4.11979L11.7613 4.17752L11.7273 4.18771H11.6934V4.17752V4.17073L11.7002 4.11979L11.7341 3.94997L11.8768 3.17562L11.887 2.82241L11.853 2.69674L11.7851 2.61863H11.7783L11.7681 2.62882L11.7613 2.6458L11.7511 2.66957L11.7104 2.83939L11.6322 3.43713L11.5066 4.33715L11.4217 4.66659L11.3809 4.75829L11.3571 4.79225L11.33 4.80923V4.80244V4.79225V4.74131L11.3368 4.59866L11.3979 4.14356L11.4896 3.48808L11.4998 3.25034V3.18241L11.4896 3.15864V3.14845H11.4828H11.4556L11.4387 3.15864L11.4319 3.16883L11.4047 3.20958L11.3809 3.27751L11.3062 3.60355L11.2383 3.88205L11.2043 3.96695L11.1873 3.99073L11.1771 4.00092L11.1703 4.01111L11.1602 3.556L11.2213 3.11788L11.4047 2.58467L11.6832 2.10579L11.8021 1.87824L11.8768 1.7356L11.887 1.74239L11.8938 1.76956L11.9107 1.86126L11.9447 2.14655L11.9889 2.50316L12.0126 2.84618L12.0024 3.19939L11.9209 3.78355L12.2911 3.38619L12.6851 3.08392L13.0145 2.86316L13.2013 2.73071L13.2659 2.68655L13.293 2.67976L13.2998 2.66957H13.31L13.1674 3.14166L13.0553 3.66468L12.9738 4.05865L12.8889 4.35413L12.8108 4.57489L12.7191 4.80244L13.3168 4.51376L13.867 4.37111L14.3357 4.34734L14.801 4.43904L14.5734 4.84319L14.3289 5.17263L14.1591 5.3832L13.867 5.67868Z" fill="#7393CC"/>
<path fill-rule="evenodd" clip-rule="evenodd" d="M8.61621 8.25313L9.41094 7.50595L10.0257 6.79613L10.4978 6.11687L10.8612 5.37648L10.9698 5.03685L11.0276 4.69722L11.1125 3.97382L11.1532 3.45079L11.2381 2.93795L11.3978 2.49983L11.6253 2.11265L11.8461 1.72548L11.8631 1.7085V1.74246L11.8902 1.83755V2.0719V2.25869L11.914 2.40813L11.9548 2.60172V2.81229V3.21645L11.8936 3.61381L11.9446 3.56287L12.2842 3.2606L12.7427 3.03984L13.0619 2.79531L13.2318 2.66964L13.3065 2.63568H13.3744H13.3914L13.1808 3.24362L13.0823 3.8074L12.9906 4.28627L12.814 4.69043L13.2827 4.49684L13.7616 4.36439L14.3084 4.30326L14.5699 4.33722L14.8144 4.41194V4.42892V4.4459L14.6718 4.75157L14.4952 5.01987L14.0503 5.55988L14.0231 5.58365L13.9382 5.67875L14.3186 5.81121L14.7125 5.9029L15.1337 5.998L15.5243 6.14064V6.15763V6.1814V6.20857L15.4903 6.22555L15.3782 6.24933L15.1269 6.31046L14.9673 6.37499L14.5291 6.52782L14.1012 6.61952L13.4763 6.66367L12.3929 6.74518L11.7849 6.84028L11.177 6.97273L10.277 7.2784L9.43472 7.7335L8.66716 8.30408H8.63998L8.623 8.2871V8.27011L8.61621 8.25313ZM9.20716 7.79463L9.75397 7.45501L10.3279 7.17651L10.8747 6.98292L11.4487 6.83349L12.5016 6.67386L13.4593 6.59575L14.1012 6.56178L14.5393 6.47688L14.9673 6.31725L15.1371 6.24933L15.3986 6.19159L15.4835 6.17461L15.1201 6.04895L14.7329 5.96404L14.3118 5.86215L13.8974 5.71951V5.70252V5.67875L14.0333 5.52592L14.4408 5.00289L14.6174 4.74138L14.7499 4.45609L14.5156 4.38816L14.271 4.36439L13.7616 4.42213L13.2216 4.58175L12.7155 4.79232H12.6918V4.76855V4.73798L12.8208 4.52741L12.9023 4.29986L13.0144 3.78362L13.1129 3.2538L13.3167 2.65606L13.2589 2.70021L13.208 2.73078L13.0891 2.83267L12.7495 3.0772L12.4031 3.32852L12.0838 3.6206L12.0057 3.7157L11.948 3.8074L11.931 3.82438H11.9072V3.8074V3.78023L11.9649 3.56966L12.0057 3.19946V2.82927V2.62889L11.9649 2.44209L11.9378 2.28247V2.08888V1.91227L11.9106 1.78661L11.717 2.12624L11.4997 2.51341L11.34 2.94474L11.2551 3.45079L11.211 3.97382L11.1295 4.70402L11.0615 5.04365L10.9596 5.38327L10.5895 6.14064L10.1174 6.8199L9.69623 7.31915L9.20716 7.79463Z" fill="white"/>
<path fill-rule="evenodd" clip-rule="evenodd" d="M8.67773 8.75195L9.17359 8.94554L9.69662 9.15611L10.2366 9.33951L10.7495 9.45159H11.2385L12.4102 9.23083L13.3782 9.05422L14.2374 8.94554L14.5805 8.93535L14.9337 8.96252L15.2122 9.03724L15.4227 9.17309L15.0865 9.27498L14.8012 9.4414L14.3529 9.66895L14.3801 9.69272L14.431 9.7097L14.5567 9.73687L14.9269 9.75386L15.4839 9.78782L15.7352 9.84556L15.939 9.93726L15.2971 10.3856L14.6824 10.6878L14.1016 10.8475L13.5616 10.8644L13.9657 11.2346L14.3461 11.632L14.6824 12.0701L14.9609 12.549H14.7571L14.5058 12.515L13.891 12.3486L13.2661 12.1041L12.7974 11.8596L12.9638 12.1211L13.0657 12.4233L13.1914 13.0958L13.2525 13.5169L13.351 13.9143L12.957 13.5271L12.6106 13.089L12.0197 12.138L11.5068 11.3026L11.1944 10.8576L10.8581 10.4365L10.42 9.98141L9.94794 9.57725L9.33322 9.12894L8.67773 8.75195Z" fill="#A7CEEB"/>
<path fill-rule="evenodd" clip-rule="evenodd" d="M15.9043 9.91374L15.3303 10.3417L14.7563 10.6643L14.1586 10.8477L13.8665 10.8817L13.5609 10.8647L13.9582 11.2009L14.3182 11.5881L14.6578 12.0432L14.9262 12.5493L14.3692 12.4745L13.8326 12.3319L13.2993 12.1281L12.7967 11.8598L13.0073 12.2402L13.1397 12.7089L13.2824 13.704L13.2925 13.8229L12.9223 13.4764L12.5182 12.9466L12.1038 12.3149L11.6929 11.6391L11.085 10.6643L11.1121 10.6541L11.1461 10.6643L11.1767 10.6813L11.2208 10.7221L11.4552 11.0073L12.0699 11.9447L12.5522 12.6851L12.7525 12.9636L12.9122 13.1572H12.9291L12.9393 13.147V13.13V13.113L12.9223 13.0553L12.8884 12.9806L12.6506 12.5764L12.4571 12.2402L12.3925 12.1043L12.3755 12.0534L12.3654 12.0194L12.3755 11.9957L12.3823 11.9787L12.4095 11.9685H12.4231L12.4333 11.9787L12.474 12.0092L12.6439 12.264L12.7695 12.4474L12.8205 12.5255L12.8714 12.5662L12.8884 12.5764H12.9054L12.9122 12.5662L12.9223 12.5594V12.5425L12.9122 12.5153L12.8952 12.4576L12.7016 12.0874L12.1955 11.2621L12.148 11.1772L12.1548 11.1602H12.1786L12.2057 11.1704L12.2295 11.184L12.4095 11.3368L12.6337 11.5304L12.8952 11.724L13.3163 11.9447L13.622 12.0602L13.7205 12.0772H13.7544L13.7884 12.0704L13.8054 12.0364V12.0092L13.7884 11.9787L13.7816 11.9685L13.7544 11.9515L13.6797 11.9175L13.459 11.8326L13.1907 11.7341L13.082 11.6832L13.014 11.6391V11.6323L13.0073 11.6221L13.014 11.6153H13.0242H13.0412H13.0888L13.1567 11.6323L13.5778 11.7409L14.0737 11.8836L14.2537 11.9108H14.2775L14.3012 11.9006L14.3114 11.8938L14.3182 11.8836L14.3114 11.8666L14.3012 11.8598L14.2537 11.8157L14.0907 11.7341L13.5948 11.5066L13.0242 11.2349L12.8205 11.1262L12.7627 11.0753L12.7457 11.0583L12.7356 11.0413V11.0243L12.7457 11.0073L12.7627 11.0006H12.7865L12.8442 11.0073L12.9291 11.0345L13.3775 11.2281L13.7035 11.3775L13.8156 11.4115H13.8326H13.8495H13.8563V11.4047L13.7544 11.2179L13.6118 11.0753L13.2586 10.8239L13.2178 10.807L13.2008 10.79L13.1839 10.7798L13.1159 10.739L12.9631 10.6304L12.9054 10.5794L12.8952 10.5522L12.8884 10.5353V10.5285H12.8952H12.9223H13.0073L13.2925 10.5455L14.3012 10.5964L14.7054 10.5522L14.7733 10.5353L14.8175 10.5047L14.8514 10.4266L14.8412 10.4198L14.8175 10.4096L14.7495 10.4028L14.539 10.4198L14.1178 10.4436L13.9412 10.4198L13.8156 10.3247L13.8563 10.2839L13.9243 10.267L14.0907 10.2602L14.2707 10.25L14.4303 10.182L14.4371 10.1583L14.4201 10.1413L14.3794 10.1243L14.3114 10.1073L13.8971 10.0496L13.5609 10.0054L13.442 9.98167L13.4012 9.96469L13.3944 9.9545H13.3842V9.9477V9.93752V9.93072H13.3944L13.4182 9.92053L13.4522 9.91374L13.6627 9.90355L14.3114 9.9477L14.7428 9.97148H14.8922H14.9431H14.9601L14.9669 9.96469L14.9839 9.9477L14.9941 9.93072V9.91374L14.9839 9.90355L14.9329 9.87978L14.8582 9.856L14.4303 9.81185L14.2095 9.78808L14.1348 9.77789L14.1076 9.7711H14.1009L14.0907 9.76091L14.0737 9.73713V9.72015L14.0839 9.70317L14.1178 9.66242L14.1586 9.61827L14.4303 9.43487L14.5729 9.33298L14.6137 9.29901L14.6239 9.28203L14.6307 9.27524L14.6239 9.25486L14.6137 9.24807H14.6069H14.5797L14.4303 9.26505L13.9582 9.38392L13.5201 9.4926L13.3503 9.52657H13.2993H13.2756L13.2586 9.51638L13.2518 9.50958V9.4926L13.2586 9.48581L13.2756 9.46883L13.3265 9.44166L13.4012 9.4077L13.8156 9.29901L14.0261 9.24807L14.0839 9.2243L14.1009 9.21411H14.1076V9.20731L14.1009 9.19033L14.0839 9.18014L14.0601 9.17335L14.016 9.16316H13.7646L13.031 9.24807L12.4842 9.30581L12.3144 9.316H12.2906L12.2737 9.30581H12.2635L12.2567 9.29901V9.28883L13.4929 9.03071L14.3794 8.9458L14.9771 8.99675L15.1707 9.05448L15.3541 9.15637L14.8922 9.39071L14.3522 9.66921L14.6477 9.74393L15.0111 9.76091L15.4831 9.78808L15.7005 9.82883L15.9043 9.91374Z" fill="#7B99CF"/>
<path fill-rule="evenodd" clip-rule="evenodd" d="M8.66699 8.735V8.71802H8.69077L9.19002 8.9184L9.70965 9.12897L10.2429 9.30557L10.7557 9.41765H11.2346L12.4029 9.20708L13.3708 9.03048L14.2403 8.9184H14.5799L14.9195 8.95236L15.198 9.03048L15.4154 9.16293L15.4596 9.15274V9.17991L15.1199 9.28859L14.8414 9.45161L14.4441 9.66218L14.529 9.68596H14.6478L14.9501 9.70294L15.5139 9.7369L15.7754 9.78785L15.9792 9.88973V9.91691L15.5309 10.2362L15.0588 10.5147L14.6478 10.698L14.1758 10.8509L13.8667 10.895H13.6459L14.3693 11.6117L14.709 12.0498L14.9841 12.549V12.5728H14.6818L14.2675 12.4879L13.3505 12.1686L13.0482 12.026L12.9361 11.9683L13.055 12.2264L13.1399 12.4981L13.2418 13.1026L13.3063 13.5068L13.4014 13.8872V13.9211H13.3844H13.3573L12.9531 13.5339L12.6135 13.0958L12.0225 12.1449L11.5097 11.3094L11.1972 10.8645L10.8576 10.4433L10.4263 9.99502L9.95418 9.59086L9.31568 9.15274L8.66699 8.77575V8.75877V8.735ZM9.08813 8.93538L9.65531 9.30557L10.1919 9.71992L10.6063 10.1071L10.9934 10.5282L11.581 11.3366L12.0633 12.1279L12.6203 13.0313L12.9395 13.4422L13.3097 13.8226L13.235 13.483L13.1739 13.1128L13.055 12.4335L12.9565 12.1415L12.7799 11.8698V11.8528V11.8256H12.8139L13.0482 11.9615L13.3505 12.1041L14.2097 12.4098L14.6071 12.4913L14.9094 12.5185L14.6478 12.0634L14.3286 11.649L13.9482 11.2449L13.5373 10.8848V10.8577V10.8407H13.561H13.8667L14.169 10.7999L14.5969 10.6811L14.9943 10.5113L15.4596 10.2497L15.8909 9.93728L15.6973 9.86256L15.4596 9.81162L14.9365 9.78785L14.5561 9.76068L14.4237 9.7369H14.3727L14.3388 9.70973V9.68596V9.66898L14.7803 9.41765L15.0418 9.26482L15.3509 9.15614L15.1335 9.04746L14.855 8.98632H14.1758L13.3437 9.09501L12.4029 9.26482L11.238 9.49237H10.7489L10.2259 9.38369L9.68588 9.17991L9.15606 8.96934L9.1153 8.95236L9.08813 8.93538Z" fill="white"/>
<path fill-rule="evenodd" clip-rule="evenodd" d="M6.25293 15.4803L6.29369 14.9335L6.4635 14.3595L6.70464 13.755L7.0103 13.1233L7.37031 12.332L7.69975 11.4965L7.93749 10.6304L7.99522 10.1753L8.0122 9.72021L8.09711 10.4878L8.28051 11.2451L8.50127 11.8327L8.72882 12.332L8.9292 12.7871L9.05486 13.181L9.21449 13.6361L9.476 14.1184L9.69676 14.5056L9.86657 14.8826L9.92431 15.246L9.89714 15.4124L9.83261 15.5754L9.52015 15.1712L9.19071 14.8656L8.86127 14.5565L8.72882 14.3697L8.62014 14.1659L8.54202 14.4614L8.41636 14.7501L8.22277 15.0422L7.91031 15.4124L7.75069 15.212L7.57408 14.9777L7.43823 14.7501L7.34653 14.4614L7.31257 14.1592L7.06804 14.4954L6.80652 14.7739L6.52124 15.0863L6.25293 15.4803Z" fill="#B4D8F0"/>
<path fill-rule="evenodd" clip-rule="evenodd" d="M9.83228 15.5139L9.79831 15.446L9.73039 15.3713L9.54359 15.1777L9.04773 14.7226L8.94585 14.6377L8.76245 14.4101L8.60961 14.1248L8.54169 14.4203L8.41603 14.7056L8.18847 15.0588L7.90998 15.3713L7.65865 15.0758L7.46507 14.7498L7.35638 14.4271L7.32921 14.1418L7.00997 14.5799L6.67373 14.9264L6.43599 15.1607L6.27637 15.3815L6.30014 15.0011L6.38505 14.6309L6.57864 14.1079L6.90128 13.4184H6.91487L6.92506 13.4354V13.4592L6.91487 13.4931L6.84015 13.6969L6.75524 13.9313L6.73147 14.023V14.0569L6.74845 14.0841L6.75524 14.0909L6.76543 14.0841H6.77222L6.79939 14.0569L6.81638 14.023L6.90128 13.8463L6.99977 13.6358L7.05072 13.5611L7.07789 13.5339L7.10166 13.5169L7.11185 13.5271V13.5339V13.5509L7.09487 13.6358L7.02695 13.9245L6.94204 14.2335L6.92506 14.3252L6.93185 14.3422V14.3524H6.94204L6.94883 14.3422L6.98279 14.3184L7.02695 14.2675L7.10166 14.1181L7.22733 13.6969L7.31223 13.4014L7.35638 13.2928L7.36997 13.2588L7.38695 13.2248H7.40393L7.41412 13.2316V13.2588V13.2928L7.38016 13.4863L7.33601 13.7105V13.7954L7.3462 13.8226V13.8294L7.35638 13.8396H7.36997L7.38695 13.8294L7.4311 13.7886L7.48884 13.6629L7.53299 13.578L7.53978 13.5679V13.5611H7.54658H7.55677L7.56356 13.578V13.6018V13.6799L7.53978 13.8905L7.50582 14.3014L7.51601 14.3864L7.53299 14.4441L7.56356 14.495L7.6145 14.512H7.62469H7.63148L7.64167 14.5052L7.64847 14.4781V14.4543L7.65865 14.2777L7.66545 14.0569L7.68243 14.0162L7.69262 13.9822L7.7096 13.9652H7.73337H7.74356L7.75036 13.972L7.76733 13.9992L7.78432 14.0909L7.82507 14.3694L7.86922 14.6716L7.893 14.7735L7.90998 14.7973L7.92017 14.8075H7.93715L7.94394 14.7973L7.95073 14.7735L7.97791 14.6988L8.01187 14.4441L8.06281 14.1248L8.09677 14.006L8.11376 13.972L8.13074 13.9482H8.14772L8.15451 13.955V13.9652L8.1647 13.989L8.17149 14.023L8.18847 14.2335L8.19527 14.4271L8.21225 14.495L8.22244 14.5188L8.22923 14.5358L8.24621 14.5562H8.27338L8.29036 14.546L8.30735 14.529L8.33112 14.4781L8.3481 14.3931L8.39904 13.9245L8.42282 13.612L8.4398 13.5679L8.44999 13.5339L8.45678 13.5271H8.46697H8.47376L8.48395 13.5339L8.71829 14.0739L8.80999 14.2098L8.82698 14.2267L8.84396 14.2335L8.87113 14.2165L8.78622 13.972L8.60961 13.4354L8.55867 13.2248V13.1637V13.1569L8.56886 13.1467L8.57565 13.1399L8.58244 13.1467L8.59263 13.1569L8.60961 13.1909L8.66056 13.2928L8.8032 13.6358L9.13943 14.4101L9.29226 14.6818L9.36019 14.7566L9.38397 14.7633H9.41114H9.41793L9.41114 14.7566L9.40095 14.7226L9.36019 14.6377L9.22434 14.3592L8.99679 13.9245L8.93905 13.7784V13.7546V13.7377L8.94585 13.7275H8.95603H8.96283L8.97302 13.7445L9.00698 13.7954L9.10547 13.9652L9.2651 14.2505L9.30925 14.3014L9.34321 14.3354L9.35 14.3422L9.36698 14.3524L9.37717 14.3422L9.38397 14.3354V14.3252L9.37717 14.3116L9.35 14.2437L9.2651 14.0501L8.97981 13.3845L8.91188 13.106L8.92886 13.0041L8.97981 12.9531V12.9633L9.07151 13.3165L9.2583 13.7546L9.40095 14.006L9.63869 14.4441L9.82209 14.8483L9.89681 15.2117L9.89001 15.3713L9.83228 15.5139Z" fill="#7393CC"/>
<path fill-rule="evenodd" clip-rule="evenodd" d="M6.25959 14.9263L6.42941 14.3456L6.68073 13.7376L6.96941 13.1059L7.33961 12.3214L7.67924 11.4961L7.90679 10.63L7.96113 10.1715V9.71644V9.69946H7.97811H8.00528V9.72663L8.09019 10.4942L8.27698 11.2414L8.49434 11.8221L8.7219 12.3282L8.93247 12.7833L9.05134 13.1807L9.21096 13.6358L9.47248 14.1078L9.68984 14.5018L9.85965 14.889L9.92758 15.2524L9.90041 15.429L9.82569 15.5988H9.80871L9.50644 15.2014L9.16681 14.8992L8.87133 14.5867L8.6268 14.2471L8.45019 14.7429L8.24642 15.0554L7.92717 15.4256H7.90339L7.75056 15.232L7.57395 14.9977L7.4381 14.7871L7.3464 14.5256L7.28867 14.2471L6.83356 14.7905L6.54488 15.1029L6.29016 15.4969H6.27318H6.2494L6.23242 15.4697L6.25959 14.9263ZM6.29016 15.3814L6.54148 15.0418L6.803 14.7565L7.05772 14.478L7.30225 14.1384H7.32603V14.1554L7.35999 14.4509L7.45508 14.7294L7.58754 14.9569L7.76414 15.1912L7.9 15.3679L8.19547 15.0282L8.38227 14.7429L8.49774 14.4644L8.58265 14.169V14.1418H8.60642V14.1588L8.70831 14.3626L8.84416 14.5392L9.18379 14.8516L9.49285 15.1471L9.79852 15.5241L9.84607 15.3746V15.2116L9.77814 14.872L9.61852 14.5086L9.40795 14.1452L9.14643 13.6663L8.98001 13.2044L8.86114 12.8172L8.65737 12.3723L8.32793 11.4282L8.13774 10.8508L8.01886 10.2361L7.88641 11.0104L7.64867 11.7406L7.35319 12.4471L7.03394 13.1263L6.74866 13.7342L6.51092 14.3082L6.3445 14.855L6.29016 15.3814Z" fill="white"/>
<path fill-rule="evenodd" clip-rule="evenodd" d="M9.23418 9.87308L9.74702 10.5965L10.287 11.1773L10.9018 11.6833L11.4995 11.9958L12.1788 12.2471L12.6678 12.4135L13.1399 12.6173L13.5203 12.8618L13.8226 13.1471L14.135 13.4358L14.118 13.4426H14.0841H13.9992L13.7818 13.3916L13.595 13.3577L13.4354 13.3407L13.089 13.2999L12.7188 13.2082L12.3825 13.0792L12.138 12.9637L12.2739 13.1131L12.4097 13.3237L12.6271 13.8637L12.7799 14.2101L12.8546 14.3766L12.8716 14.4445L12.8546 14.4954L12.3248 14.1592L11.8255 13.9316L11.3569 13.7041L11.1531 13.5784L10.9833 13.4086L11.0512 13.9045L11.0614 14.4207L10.9663 14.8996L10.8678 15.1203L10.7319 15.3139L10.4874 15.1203L10.27 14.8928L9.88287 14.3766L9.77079 14.2169L9.51947 14.5362L9.31569 14.8758L9.10512 15.212L8.86059 15.5143L8.8538 15.4973L8.84361 15.4736L8.8538 15.3886L8.86059 15.1441L8.84361 14.9845L8.81983 14.5701L8.8538 14.1592L8.98965 13.6124L9.20022 12.6343L9.28173 12.0773L9.31569 11.5237L9.26475 10.6644L9.07116 9.82893L8.74512 9.0376L9.23418 9.87308Z" fill="#A1CEEB"/>
<path fill-rule="evenodd" clip-rule="evenodd" d="M9.78108 14.1931L9.71995 14.278L9.64523 14.3765L9.50258 14.5633L9.13918 15.1202L8.98975 15.3376L8.87767 15.4633L8.87088 15.4565V15.4463L8.86069 15.4225V15.3614L8.87088 15.195L8.87767 15.0863V15.0184L8.86069 14.8825L8.83691 14.57L8.84371 14.261L8.95578 13.67L9.20032 12.7938H9.20711V12.804L9.2139 12.821V12.8345L9.20711 12.9534L9.13918 13.3508L9.0305 14.098L9.01352 14.4274L9.02371 14.5565L9.05428 14.638L9.06446 14.6482L9.07126 14.638L9.08824 14.621L9.10522 14.5972L9.16635 14.4274L9.27503 13.9553L9.34975 13.67L9.35994 13.6632V13.653L9.36673 13.6632L9.37692 13.67L9.38372 13.6972V13.7278L9.4007 13.9723L9.41089 14.244L9.42447 14.3255L9.43466 14.3425L9.44145 14.3527L9.45843 14.3595L9.57051 14.227L9.62145 14.1183L9.62825 13.9248V13.8059L9.67919 13.67H9.68598L9.69617 13.6802L9.70297 13.687L9.71316 13.704L9.79806 13.8466L10.0562 14.3017L10.4535 14.7908H10.4705L10.4807 14.7806V14.7568V14.7297L10.4196 14.5361L10.1513 13.9315L9.82184 13.2081L9.73013 12.9364L9.71995 12.8447V12.8108L9.73013 12.787L9.73693 12.7768H9.74712L9.75391 12.787L9.77089 12.7938L9.78787 12.821L9.88976 12.9806L10.1411 13.5172L10.4196 14.0912L10.5215 14.2508L10.5385 14.2678H10.5452H10.5554H10.5622L10.5724 14.261V14.2508L10.5962 14.21V14.1489L10.5724 13.9893L10.4366 13.5783L10.3177 13.1979L10.3007 13.0723L10.3109 13.0315L10.3347 13.0145H10.3449L10.3517 13.0213L10.3686 13.0485L10.4196 13.1232L10.5283 13.3508L10.6743 13.6463L10.6981 13.6972L10.732 13.721H10.7388H10.749L10.7558 13.7108L10.766 13.6972L10.8 13.5274L10.783 13.3406L10.6913 12.9534L10.6403 12.7191L10.6301 12.641L10.6403 12.6172L10.6573 12.6002L10.9188 13.0485L11.2619 13.4255L11.5471 13.6361L11.8766 13.7787L12.223 13.8636L12.2468 13.8297L12.24 13.8059L12.2298 13.7719L12.0872 13.6021L11.5811 13.1572L11.2279 12.8447L11.1362 12.7428L11.1294 12.7259L11.1192 12.7191L11.1294 12.7021H11.1362H11.1464L11.16 12.7089L11.1939 12.7361L11.3128 12.821L11.6253 13.0655L12.0022 13.3576L12.1381 13.4527L12.1721 13.4663H12.1789H12.189V13.4595L12.2128 13.4425V13.4187V13.4017L12.1551 13.2829L11.9377 12.9806L11.7917 12.7768L11.7611 12.7089L11.7509 12.6919V12.6851L11.7611 12.6749L12.1381 12.8549L12.6509 13.0044L13.0992 13.1062L13.2419 13.1232H13.2826H13.2996V13.113L13.2759 13.0655L13.2249 13.0145L13.0143 12.9195L12.3826 12.7089L11.7441 12.5085L11.4724 12.3998L11.272 12.281V12.264V12.247L11.289 12.2402H11.3128L11.3807 12.247L11.4826 12.264L12.0634 12.4644L12.5762 12.641L12.763 12.6919H12.8275H12.8445L12.8615 12.6851L12.8717 12.6613L12.8615 12.641L12.8547 12.6274L12.8038 12.5934L12.746 12.5594L12.3758 12.4066L12.0702 12.2877L11.9785 12.2402L11.9615 12.213L11.9547 12.2028V12.196L12.4506 12.3319L13.0075 12.5832L13.5713 12.9466L14.0502 13.4187H14.0434H14.0095L13.9144 13.3915L13.6868 13.3338L13.4185 13.3168L13.2079 13.2998L12.8887 13.2319L12.4913 13.113L12.1143 12.9466L12.3079 13.1402L12.4574 13.3746L12.6204 13.8398L12.7528 14.1829L12.8275 14.3866L12.8547 14.4546V14.4783V14.4885V14.4953L12.5083 14.278L12.0532 14.0504L11.4487 13.7447L11.177 13.5783L10.9664 13.4085L11.0683 13.9825L11.0615 14.4953L10.9324 14.9267L10.7252 15.2697L10.4128 15.0014L10.1343 14.7059L9.78108 14.1931Z" fill="#7393CC"/>
<path fill-rule="evenodd" clip-rule="evenodd" d="M8.71085 8.96973H8.73462V8.98671L9.24067 9.86295L9.74672 10.5796L10.2833 11.1603L10.9015 11.6562L11.4992 11.9686L12.1785 12.2132L12.6675 12.3898L13.1328 12.5834L13.52 12.8381L13.8324 13.1234L14.1415 13.4087V13.4358L14.1143 13.4528H14.0804H13.9887L13.7611 13.4257L13.5845 13.3849L13.4215 13.3679H13.2279L13.0241 13.3272L12.6505 13.2287L12.2803 13.0758L12.3143 13.1268L12.5181 13.4902L12.6607 13.8706L12.8034 14.2102L12.8883 14.3936V14.4615V14.5294H12.8713H12.8475L12.3177 14.1898L11.8185 13.9623L11.3837 13.7551L11.0441 13.5106L11.095 13.9657V14.4208L10.9932 14.9268L10.8913 15.1544L10.7486 15.3479H10.7045L10.4599 15.1476L10.2528 14.9268L9.8554 14.3936L9.77049 14.2747L9.53615 14.577L9.34596 14.8928L9.13539 15.2325L8.89086 15.5449H8.86369V15.5178V15.4838V15.3853V15.1578V14.9947L8.78557 14.5872L8.82633 14.166L8.95538 13.6192L9.17275 12.6513L9.24746 12.0943L9.29162 11.5305L9.24067 10.6645L9.03689 9.83238L8.69727 9.03086V9.00369L8.71085 8.96973ZM8.87727 14.9744V15.134V15.3785V15.4532L9.09803 15.1679L9.29162 14.8487L9.50219 14.5091L9.74672 14.1694H9.77389L9.88257 14.3291L10.263 14.8351L10.7215 15.2664L10.8505 15.083L10.9422 14.8725L11.0441 14.4208V13.9079L10.9762 13.4223V13.3951H11.0033H11.0203L11.1867 13.5547L11.3803 13.6838L11.8456 13.9079L12.3347 14.1287L12.8475 14.4479V14.4072V14.3562L12.7864 14.2204L12.637 13.8808L12.4909 13.5072L12.2973 13.1675L12.2226 13.0758L12.1547 13.0079V12.9909V12.9739L12.5351 13.1438L13.0479 13.3034L13.2483 13.3373H13.4351L13.6049 13.3543L13.7815 13.3985L13.9411 13.4324L14.0702 13.4494L13.7985 13.1947L13.4928 12.889L13.1226 12.6445L12.6607 12.4441L12.1717 12.2743L11.4924 12.0298L10.8879 11.7105L10.2596 11.1909L9.71955 10.6135L9.34596 10.1313L9.00633 9.61842L9.17614 10.1754L9.27803 10.746L9.34596 11.269V11.7988L9.22029 12.76L9.00633 13.6124L8.88067 14.166L8.84331 14.5872L8.87727 14.9744Z" fill="white"/>
<path fill-rule="evenodd" clip-rule="evenodd" d="M1.55957 3.47784L1.96373 3.47105L2.37807 3.52199L2.79921 3.56275L3.22035 3.56954L3.14224 3.37595L2.9011 2.74424L2.83318 2.43518L2.78902 2.12272L3.04375 2.12952L3.28828 2.19065L3.76715 2.4182L4.21207 2.73745L4.60943 3.10085L4.55849 2.8733V2.62877L4.62641 2.11253L4.71132 1.56573V0.934024L4.76226 0.961194L4.81321 1.01214L4.92189 1.17856L5.13925 1.508L5.48567 2.02083L5.60454 2.26537L5.66228 2.46914L5.68605 2.19744L5.76417 1.85442L5.88983 1.49781L6.05625 1.19554L6.12417 1.05969L6.1921 0.893269L6.2838 0.682699L6.32795 0.614773L6.34493 0.597792L6.36871 0.580811L6.44682 1.01214L6.52154 1.44007V1.88838L6.43663 2.38424L6.31097 2.88009L6.14116 3.57973L6.09021 3.91596L6.08342 4.25219L6.17512 5.0707L6.38569 5.85524L6.72532 6.7145L7.194 7.63829L6.68116 6.87412L6.05625 6.19147L5.33284 5.6175L4.82 5.29825L4.27999 5.01296L3.31205 4.57484L2.74827 4.33031L2.36789 4.10955L2.02486 3.82426L1.88901 3.70539L1.66825 3.56275L1.59353 3.52199L1.56976 3.49482L1.55957 3.47784Z" fill="#AED4EE"/>
<path fill-rule="evenodd" clip-rule="evenodd" d="M3.23653 3.59003L3.09389 3.26059L3.02596 3.05002L2.87313 2.56774L2.78822 2.12283L3.21955 2.19076L3.68144 2.37416L4.17051 2.7036L4.59165 3.10775L4.55089 2.83945L4.55768 2.53378L4.64938 1.86132L4.7275 1.35527L4.73429 0.944321L4.74448 0.951114L4.76146 0.968095L4.8124 1.02923L4.92788 1.20584L5.16562 1.54207L5.4577 1.93604L5.57657 2.15679L5.65468 2.40133L5.84827 1.68471L5.94676 1.39942L5.99091 1.30433L6.01469 1.25678L6.15054 1.01904L6.25243 0.774507L6.31016 0.648845L6.32715 0.614882L6.33394 0.604693V0.5979H6.34413L6.47998 1.27036L6.48677 1.96321L6.36111 2.71378L6.11658 3.53908L6.06563 3.52889L6.04186 3.48814L6.03167 3.40323L6.04186 3.28436L6.10639 2.98888L6.20148 2.65265L6.32715 2.19755L6.35092 2.03113V1.96321L6.34413 1.91905L6.33394 1.90207L6.32715 1.89528H6.31016L6.28299 1.91226L6.25922 1.93604L6.15054 2.11264L6.06563 2.26548L6.04186 2.28246L6.02488 2.29944H6.01469L6.00789 2.28925L5.99771 2.28246L6.02488 2.03113L6.10639 1.75943L6.16752 1.54886L6.17431 1.47414L6.16752 1.45716L6.15733 1.44018L6.12337 1.43339L6.10639 1.44018L6.08941 1.45716L6.04865 1.49792L6.01469 1.57603L5.86186 2.03113L5.73619 2.56095L5.67846 2.90737L5.66827 2.92096V2.93115H5.66148H5.65468L5.64449 2.92096L5.6377 2.91417L5.62072 2.8802L5.5426 2.65265L5.43392 2.3334L5.37619 2.22472L5.34902 2.18057L5.31505 2.17378H5.29807L5.29128 2.18057L5.28109 2.20774L5.2743 2.23151L5.26411 2.40133L5.29128 2.91417L5.31505 3.38625V3.47116L5.30826 3.52889L5.29807 3.54587L5.29128 3.55606H5.28109L5.26411 3.54587L5.24034 3.49493L5.21656 3.42021L5.15543 3.19945L5.06373 2.6119L4.96184 2.00396L4.9109 1.82735L4.89391 1.80358L4.88712 1.79339H4.87014H4.85995L4.85316 1.80358L4.76825 2.09566L4.74448 2.49303L4.76825 2.98209L4.84297 3.46097L4.82599 3.49493H4.80222L4.74448 3.47116L4.67655 3.427L4.28938 3.09077L3.85126 2.6968L3.64069 2.54397L3.47087 2.45227L3.46408 2.45906V2.46925V2.47605L3.47087 2.50322L3.56257 2.61869L3.91918 3.02285L4.47278 3.67154L4.6324 3.90928L4.64938 3.95003L4.65957 3.98399V4.01116L4.64259 4.02475H4.61542H4.59165L4.52372 3.98399L4.3573 3.82437L3.95994 3.30134L3.65767 2.89718L3.54559 2.7885L3.52182 2.77152L3.50484 2.76133H3.48785L3.48106 2.77152L3.47087 2.77831V2.80548L3.48785 2.87341L3.57276 3.07379L3.67465 3.29455L3.72559 3.48814L3.69842 3.49493H3.68144L3.66446 3.48814L3.62371 3.44399L3.57955 3.38625L3.37917 3.05002L3.18559 2.7036L3.14143 2.65265L3.10747 2.61869L3.09389 2.6119L3.0769 2.60171L3.05992 2.6119L3.04973 2.62888L3.03275 2.73756L3.05992 2.87341L3.18559 3.16889L3.57955 3.77343L3.77314 4.0689L3.80031 4.11985L3.81729 4.1606L3.8071 4.17758L3.79012 4.18777L3.2603 3.84135L3.10068 3.75644L2.98181 3.7055H2.96483H2.94785L2.93086 3.71569L2.92407 3.72248V3.73267L2.93086 3.75644L2.95803 3.80739V3.81418L2.96483 3.82437L2.99879 3.84814L3.09389 3.91607L3.28747 4.0689L3.31125 4.10286L3.32823 4.13683V4.1606L3.31125 4.18777L3.28747 4.19456H3.24332L3.12785 4.1606L2.83237 4.00098L2.5369 3.84135L2.47576 3.82437H2.43501L2.41123 3.83116L2.40104 3.85833L2.41123 3.88211L2.42822 3.89909L2.47576 3.95003L2.65577 4.05871L3.18559 4.32023L3.84107 4.63268L4.04484 4.77533L4.09579 4.84325L4.10258 4.90099L3.20936 4.55797L2.6218 4.2523L2.03085 3.83116L1.95613 3.76324L1.82028 3.67154L1.66745 3.56286L1.60971 3.5221L1.59273 3.50512V3.49493L1.58594 3.48814L1.63688 3.47795H1.71839L1.94594 3.48814L2.61161 3.54587L2.90709 3.56286L3.23653 3.59003Z" fill="#7393CC"/>
<path fill-rule="evenodd" clip-rule="evenodd" d="M1.55893 3.4437H1.96309L2.38423 3.48785L2.7714 3.5388H3.17556L3.11782 3.40974V3.39276L2.88008 2.75426L2.80537 2.4418L2.7714 2.12255V2.09538H3.03292L3.27745 2.15312L3.76651 2.38067L4.16048 2.66935L4.53407 3.00898L4.52388 2.57765L4.59181 2.10557L4.66992 1.56556V0.944039V0.920265H4.6937L4.75483 0.944039L4.81257 0.994983L4.92125 1.17159L5.13182 1.49084L5.38314 1.83047L5.61069 2.23123L5.63447 2.29236L5.70919 1.90179L5.83824 1.5316L5.92994 1.3414L6.03183 1.17159L6.09976 1.03574L6.16768 0.876114L6.25938 0.662148L6.31033 0.58743L6.3341 0.570448L6.36127 0.553467V0.570448L6.46995 1.00178L6.55486 1.4331V1.895L6.46316 2.39086L6.3341 2.89011L6.17448 3.56937L6.12353 3.90899V4.24862L6.20165 5.07731L6.41222 5.86186L6.75185 6.72112L7.24091 7.66528V7.68906V7.70604H7.21714L6.7043 6.93168L6.07259 6.25243L5.33899 5.67166L4.83295 5.35921L4.30313 5.07392L3.325 4.6358L2.7748 4.40145L2.35026 4.12636L2.01064 3.84786L1.87478 3.7188L1.65403 3.57276L1.57252 3.52521L1.53516 3.51163V3.47767V3.45389L1.55893 3.4437ZM1.62006 3.50484L1.68459 3.5388L1.90535 3.68144L2.0412 3.79692L2.38083 4.0856L2.76121 4.30296L3.3182 4.54749L4.17407 4.92788L5.09786 5.41694L5.56994 5.73619L6.00806 6.0962L6.44618 6.53432L6.84015 7.0132L6.57863 6.44262L6.35108 5.85167L6.14051 5.07731L6.04882 4.25881L6.0658 3.91918L6.11674 3.57955L6.28995 2.87313L6.40882 2.38406L6.49373 1.88481V1.4399L6.41901 1.01876L6.34429 0.631581L6.28995 0.740262L6.23221 0.899888L6.16429 1.07649L6.08957 1.21235L5.99787 1.37197L5.92315 1.54858L5.74655 2.06481L5.68541 2.46897H5.65824V2.4452L5.61069 2.36029L5.56654 2.24142L5.37295 1.87122L5.12163 1.5316L4.90087 1.19197L4.82615 1.05612L4.7854 1.01536L4.75144 0.981398V1.58933L4.65974 2.11236L4.59181 2.6286V2.86294L4.63257 3.09049V3.11766H4.602L4.19445 2.76105L3.74953 2.4418L3.29443 2.22444L3.06009 2.1633H2.82235L2.85631 2.46897L2.93103 2.77124L3.16877 3.38597L3.24349 3.57276V3.59654L3.2265 3.61352H2.78838L2.37743 3.56257L1.99026 3.52182L1.62006 3.50484Z" fill="white"/>
<path fill-rule="evenodd" clip-rule="evenodd" d="M6.9654 8.38217L6.25218 8.5418L5.55254 8.75916L4.99555 8.9969L4.46573 9.28219L3.60647 9.88673L2.88306 10.5184L2.04758 11.235L1.60267 11.5305L1.12039 11.7683L1.33096 11.4286L1.51776 11.0517L1.8438 10.4539L2.0306 10.1992L2.25815 10.0056L1.76229 10.0905L1.12039 10.1177L0.515855 10.0735L0.271323 10.0328L0.0947159 9.96484L0.488685 9.60144L0.926805 9.28898L1.39889 9.03766L1.87776 8.82029L1.3921 8.6335L0.920013 8.28708L0.454722 7.8082L0.0166016 7.17649L0.227172 7.15272L0.471703 7.18329L0.987939 7.32933L1.33096 7.42782L1.44983 7.4448H1.50078L1.53474 7.43801L1.2053 7.07461L0.994731 6.82328L0.726425 6.61271L0.960769 6.56177L1.22907 6.57875L1.55851 6.66366L1.87097 6.78932L2.61136 7.1697L3.43666 7.64858L4.43177 8.22934L4.86989 8.38217L5.37594 8.4467L5.91255 8.43991L6.45256 8.41274L6.9654 8.38217Z" fill="#B4D6EF"/>
<path fill-rule="evenodd" clip-rule="evenodd" d="M1.17193 11.7512L1.18891 11.7241L1.62704 10.824L1.91232 10.3689L2.25195 9.98855L1.71194 10.1074L1.13118 10.1312L0.608151 10.0836L0.0953116 9.96478L0.557206 9.56741L1.07005 9.22439L1.48439 8.99684L1.92251 8.80325L1.54213 8.68438L1.18891 8.49758L0.876458 8.25305L0.438337 7.76738L0.0341797 7.17643L0.295692 7.15266L0.557206 7.18322L1.02929 7.33606L1.32477 7.42775L1.44364 7.44474L1.53534 7.43794L1.12099 6.98284L0.767777 6.59567L1.01231 6.55151L1.2908 6.57868L1.62024 6.67038L1.9293 6.79605L2.67988 7.2002L3.53235 7.74021V7.75719L3.51537 7.76738H3.4882L3.45424 7.75719L3.23687 7.67229L2.59498 7.34624L2.07534 7.07454L1.90553 6.99982L1.85459 6.98963H1.8444H1.8376V6.99982L1.83081 7.00662V7.0168L1.8444 7.05077L1.92251 7.15945L2.18403 7.44474L2.43535 7.72323L2.51007 7.82512L2.52705 7.84889V7.86588H2.52026L2.51007 7.89305L2.49648 7.91003H2.46252L2.42856 7.89305L2.35044 7.8421L2.25195 7.76738L1.78666 7.30209L1.53534 7.05077L1.45043 6.98284L1.42326 6.96586H1.41647H1.40967L1.39948 6.97265L1.39269 6.98284V6.98963V7.00662L1.39948 7.05077L1.42326 7.10171L1.60326 7.35304L1.71194 7.50587L1.7459 7.55681L1.7527 7.58059V7.58738V7.63153L1.71874 7.65531L1.661 7.66549L1.57609 7.65531L1.12099 7.56361L0.767777 7.4787H0.710039H0.665887L0.648906 7.48889L0.642113 7.49568V7.50587L0.648906 7.52285L0.642113 7.54662V7.56361L0.659094 7.58059L0.710039 7.62134L0.777965 7.66549L1.18891 7.8421L1.50816 7.98475L1.61005 8.04248L1.63722 8.06965L1.64402 8.07644V8.08663L1.63722 8.12739L1.60326 8.15456H1.55232L1.49118 8.14437L1.18212 8.01871L1.0191 7.95078L0.903627 7.91003L0.859475 7.89984L0.842494 7.91003L0.835701 7.91682V7.92701V7.94399L0.852684 7.99493L1.26363 8.31419L1.7459 8.51457L2.16704 8.58249L2.50328 8.59268L2.73083 8.59947L2.76479 8.60966L2.79875 8.62664L2.81573 8.6674V8.67419L2.79875 8.68438L2.76479 8.70815L2.64592 8.7591L2.26893 8.86778L1.70175 9.03759L1.50816 9.12929L1.45722 9.18024L1.44364 9.23118L1.45043 9.24816H1.45722L1.4742 9.25496L1.5693 9.24816L1.86478 9.19043L2.15006 9.12929L2.23497 9.1225L2.25195 9.12929H2.25874L2.26893 9.14627V9.15646L2.25874 9.16326L2.25195 9.18024L2.23497 9.19043L2.1161 9.23118L1.72892 9.33986L1.24665 9.47571L1.17193 9.49949L1.1142 9.53345L1.09722 9.55043L1.08703 9.56741V9.5776L1.09722 9.59458L1.17193 9.61157H1.27382L1.51835 9.59458L1.79685 9.56741L1.8376 9.5776L1.86478 9.5844L1.87836 9.60138V9.61836L1.87157 9.63534L1.86478 9.64553L1.8444 9.66251L1.80364 9.67949L1.67798 9.71006L1.2908 9.75421L0.859475 9.80515L0.72702 9.83912L0.68287 9.86289L0.665887 9.89685L0.68287 9.93761L0.710039 9.95459L0.744001 9.96478L0.988534 9.98176L1.71874 9.93082L2.13308 9.84591L2.48629 9.72704L2.71385 9.65232L2.7546 9.64553H2.78177L2.79875 9.65232L2.80555 9.6693V9.68628L2.79875 9.69308L2.78177 9.73723L2.69007 9.82893L2.41837 10.0667L2.04817 10.3859L1.99723 10.4538L1.97346 10.5048V10.5286L1.98025 10.5455L1.99723 10.5625L2.0244 10.5693H2.04138L2.05497 10.5625L2.1161 10.5184L2.25195 10.4199L2.50328 10.2331L2.55422 10.2093L2.59498 10.1923L2.62215 10.1991L2.64592 10.2263V10.2331L2.63913 10.2501L2.62215 10.2772L2.53724 10.3689L2.25195 10.6135L1.88855 10.9429L1.78666 11.0584L1.76968 11.0754V11.0923V11.1093L1.78666 11.1195L1.85459 11.0923L1.93949 11.0414L2.18403 10.8648L2.83272 10.335L3.67499 9.6693L3.96707 9.4859L4.01802 9.45873H4.05198L4.07915 9.46892L4.09613 9.4859L3.24367 10.1991L2.13308 11.1263L1.62704 11.4965L1.17193 11.7512Z" fill="#7393CC"/>
<path fill-rule="evenodd" clip-rule="evenodd" d="M0.0101884 7.15277L0.227552 7.11881L0.472083 7.15277L1.0053 7.30221L1.27361 7.38711L1.39248 7.41089H1.47399L1.18191 7.07126L0.97813 6.82673L0.709823 6.61616V6.59918V6.58219H0.726804L0.964544 6.53125L1.23964 6.54823L1.57927 6.63314L1.89852 6.75201L2.6491 7.13918L3.4676 7.61806L4.46951 8.19203L4.89744 8.35166L5.39669 8.41279H5.93331L6.47331 8.37883L6.96917 8.35505H6.98615V8.37204V8.39581H6.96917L6.26274 8.54524L5.58349 8.766L5.0265 9.00035L4.49668 9.28563L3.63742 9.89357L2.89363 10.5457L2.05815 11.2623L1.61323 11.5577L1.12417 11.7989H1.097V11.7649L1.30757 11.4253L1.49097 11.0449L1.77965 10.5117L1.92909 10.274L2.12268 10.0736L2.014 10.0973L1.67437 10.1313H0.750578L0.346421 10.0838L0.0679259 9.98867L0.0509448 9.97168V9.94791L0.455102 9.5879L0.893223 9.27545L1.78645 8.81355L1.59286 8.74563L1.32455 8.61317L0.961149 8.35166L0.641897 8.04599L0.302269 7.62485L0 7.17994V7.15277H0.0101884ZM0.689445 8.02561L1.0019 8.32109L1.34153 8.57581L1.61323 8.70147L1.88154 8.79317H1.90531V8.82034L1.41965 9.03771L0.954356 9.29243L0.516235 9.61168L0.139248 9.95131L0.414347 10.0294L0.801523 10.0702H1.67776L1.99022 10.0362L2.24494 9.98527V10.0124V10.0294L2.02758 10.223L1.8306 10.4675L1.52153 11.0653L1.35172 11.4049L1.17511 11.7106L1.62003 11.4728L2.07173 11.1909L2.85627 10.5117L3.53553 9.91055L4.32007 9.33998L4.79895 9.06148L5.30839 8.81355L5.91293 8.586L6.54464 8.42638H6.46313L5.91293 8.46034H5.36613L4.85329 8.39241L4.41517 8.23958L3.42006 7.65882L2.62872 7.19692L1.91211 6.82673L1.29059 6.60597L1.01888 6.57201L0.79473 6.60597L1.03587 6.80975L1.22266 7.0373L1.56229 7.3973V7.45504L1.54531 7.47202H1.50116H1.45021L1.33134 7.45504L0.991715 7.35655L0.516235 7.2173L0.278495 7.18334H0.0849071L0.373592 7.62146L0.689445 8.02561Z" fill="white"/>
<path fill-rule="evenodd" clip-rule="evenodd" d="M15.7927 6.22534L15.3138 6.52082L14.9266 6.8129L14.5904 7.0846L14.1862 7.34612L14.5802 7.36989L14.8927 7.44461L15.1711 7.57027L15.4564 7.74008L15.701 7.88273L15.2459 8.21217L14.8859 8.43292L14.5292 8.55859L14.176 8.65029L14.4206 8.75218L14.6413 8.87784L15.0183 9.19709L15.3885 9.50955L15.8776 9.80502L15.6772 9.87974L15.4734 9.90351L15.0353 9.86276L14.5802 9.70993L14.1081 9.50955L13.5273 9.2752L12.9805 9.12916L12.5017 9.03067L11.9549 8.84388L11.3469 8.64349L10.6303 8.44651L9.72011 8.29707L8.78613 8.24613L9.34312 8.21217L9.89672 8.12726L10.9496 7.85895L11.9617 7.49555L12.9228 7.09139L13.6972 6.76195L14.4308 6.48686L15.1304 6.28987L15.7927 6.22534Z" fill="#AED4EE"/>
<path fill-rule="evenodd" clip-rule="evenodd" d="M13.1916 7.62119L13.1848 7.58722L13.1916 7.58043L13.2085 7.56345L13.2527 7.52949L13.3104 7.49552L13.7044 7.32911L14.2716 7.09137L14.4652 6.95891L14.5161 6.89778L14.5229 6.82985L14.5161 6.82306H14.5059H14.4991L14.421 6.84004L14.1935 6.93853L13.7893 7.11854L13.7044 7.13552L13.6399 7.14231L13.6059 7.13552L13.5889 7.12533L13.5719 7.09137V7.07438L13.5787 7.0574L13.6297 7.02344L13.7995 6.94872L13.9931 6.86382L14.0508 6.82985L14.0746 6.80608V6.7891H14.0678L14.061 6.77891H14.0338L13.9489 6.79589L13.7146 6.874L13.4531 6.95891L13.3614 6.9657H13.3342L13.3274 6.94872L14.5467 6.47664L15.1206 6.3272L15.6674 6.25928L15.2565 6.52079L14.9101 6.79589L14.5738 7.0574L14.1697 7.31892L14.1527 7.34609L14.1595 7.36986L14.1867 7.37665L14.5738 7.39364L14.8863 7.47175L15.1546 7.59741L15.4399 7.76723H15.4501L15.6505 7.89289L15.2225 8.19516L14.8693 8.39894L14.2886 8.59932L14.2036 8.6163L14.1697 8.63328L14.1527 8.64347L14.1425 8.65026L14.1527 8.66724L14.1697 8.68422L14.404 8.77592L14.6248 8.90158L15.0018 9.21404L15.3482 9.51631L15.8033 9.805L15.6165 9.86273L15.4229 9.87971L15.0018 9.82198L14.5637 9.67933L14.1187 9.48574L13.5448 9.24801L12.9912 9.10536H12.981L12.5089 9.00347L11.9621 8.82007L11.9281 8.80309L11.7617 8.75215L11.7685 8.73517L11.7787 8.72498L11.8025 8.71819H11.8262L12.0198 8.72498L12.7127 8.86762L13.7485 9.18008L14.7504 9.56046L14.7674 9.50952L14.7572 9.48574L14.7437 9.45857L14.6757 9.40763L14.5738 9.35669L14.0338 9.1631L13.7384 9.0714L13.6399 9.03064L13.6059 9.01366L13.5889 8.99668L13.5719 8.96951L13.5617 8.94574V8.92875L13.5787 8.91857L13.5957 8.91177H13.6297L13.7044 8.91857L14.1697 9.04423L14.5806 9.15631L14.7165 9.17329H14.7335L14.7504 9.1631L14.7572 9.13932L14.5738 8.96272L14.2953 8.83706L13.6704 8.7012L13.3783 8.65026L13.2765 8.6163L13.2085 8.57554V8.55856L13.2187 8.54837L13.2323 8.54158L13.2765 8.5246L13.3444 8.50762L13.7553 8.46346L14.3803 8.39894L14.6248 8.33101L14.7063 8.28686L14.7572 8.23591V8.22912L14.7504 8.21893L14.7233 8.21214L14.6927 8.20195L14.4889 8.18837H13.8233H13.1066L12.8383 8.17138L12.7466 8.1612L12.6855 8.13742H12.6787V8.12723V8.12044L12.6855 8.11025L12.7025 8.10346L12.7365 8.09327L12.9742 8.05931L13.7723 8.04233L14.6927 8.01176L15.0188 7.9778L15.1206 7.95063L15.1546 7.93364L15.1716 7.91666L15.1784 7.90987V7.89968L15.1716 7.89289H15.1648L15.1478 7.8827L14.995 7.86572L14.4821 7.85893L14.0338 7.84874L13.8674 7.84194L13.7485 7.82496V7.80798L13.7553 7.791L13.7825 7.77402L13.8233 7.75704L14.0916 7.6993L14.4889 7.67213L14.8863 7.6993L14.9101 7.67213L14.9271 7.64836L14.9203 7.61439L14.8931 7.59741L14.8693 7.58722L14.7844 7.56345L14.5229 7.54647L14.1935 7.55666L13.1916 7.62119Z" fill="#86A4D6"/>
<path fill-rule="evenodd" clip-rule="evenodd" d="M8.78651 8.21244L9.3435 8.17848L9.8903 8.10376L10.9432 7.83205L11.962 7.46186L12.9198 7.0577L13.6941 6.71807L14.4277 6.43958L15.1206 6.26637L15.7998 6.19165V6.21542V6.23241L15.321 6.51769L14.9406 6.82336L14.2953 7.31922L14.6349 7.34639L14.944 7.4279L15.2055 7.55696L15.484 7.71658L15.7183 7.85243V7.8796V7.89658L15.2632 8.23621L14.893 8.47395L14.2885 8.67433L14.6994 8.90188L15.0391 9.19057L15.3991 9.49963L15.8813 9.79511V9.81888L15.6776 9.8936L15.467 9.92756L15.0289 9.88001L14.567 9.73397L14.1017 9.54378L13.5277 9.29925L12.9809 9.15321L12.4986 9.04453L11.9518 8.86792L11.3473 8.65735L10.6307 8.47395L9.7137 8.32112L8.7967 8.27017H8.76953V8.25319V8.22602L8.78651 8.21244ZM9.40124 8.23621L10.1348 8.32112L10.8582 8.47395L11.962 8.81358L12.5088 8.99698L12.9809 9.09887L13.5345 9.24151L14.1085 9.47586L14.5534 9.67284L14.9915 9.81548L15.4127 9.87322L15.6062 9.85624L15.793 9.7985L15.3379 9.50982L14.9983 9.20755L14.6213 8.89509L14.4006 8.76943L14.1662 8.67773V8.66075V8.64377L14.1934 8.61999L14.533 8.5249L14.8727 8.39244L15.2123 8.18866L15.6402 7.8864L15.4296 7.76073L15.1444 7.59092L14.876 7.46526L14.5636 7.38714L14.1764 7.37016H14.1492V7.34639V7.31922L14.5534 7.0577L14.893 6.79619L15.2327 6.52109L15.6436 6.25958L15.0119 6.34109L14.3326 6.53468L13.633 6.80638L12.9402 7.11544L12.1047 7.45507L11.2386 7.7947L10.3352 8.05621L9.40124 8.23621Z" fill="white"/>
<path fill-rule="evenodd" clip-rule="evenodd" d="M9.82175 0.0065918L10.0255 0.723207L10.158 1.38888L10.2089 1.97983L10.141 2.49267L10.3448 2.1904L10.6233 1.95266L10.9323 1.81002L11.2108 1.78624L11.3059 1.9187L11.3569 2.08851L11.3637 2.47569L11.2788 2.87985L11.1361 3.26702L11.4995 3.14815L11.7916 3.04966L12.0803 2.97155L12.3418 2.95796L12.5592 3.0157L12.3248 3.29419L12.0191 3.53873L11.2957 4.01081L10.5452 4.48969L10.1682 4.78516L9.80477 5.10441L9.30891 5.67838L8.91155 6.32707L8.63305 7.0335L8.80966 6.14707L8.92853 5.26404L8.96249 4.68327L8.93872 4.09232L8.87759 3.72213L8.76211 3.35193L8.50739 2.84588L8.37493 2.60135L8.27304 2.33984L8.21191 2.00361L8.22889 1.66737H8.25606L8.29003 1.67756L8.38173 1.7353L8.62626 1.94587L8.87759 2.23116L9.0474 2.50965L9.03042 2.28889L9.0474 2.07153L9.19004 1.49756L9.45835 0.801322L9.82175 0.0065918Z" fill="#ACD2ED"/>
<path fill-rule="evenodd" clip-rule="evenodd" d="M8.90497 3.71539L8.73516 3.20934L8.53478 2.82896L8.40572 2.59461L8.30723 2.35008L8.24609 2.02064L8.25628 1.6912L8.29024 1.70818L8.39213 1.77611L8.74535 2.12253L8.91177 2.3331L9.02384 2.52669L9.03743 2.54367H9.0646L9.07139 2.52669L9.08158 2.50971L9.05441 2.28895L9.08158 2.07159L9.22422 1.5078L9.46876 0.842131L9.81518 0.0915527L10.0088 0.767413L10.1344 1.38893L10.1752 1.97989L10.1174 2.49272V2.50971L10.1412 2.52669H10.1582L10.1752 2.50971L10.2703 2.33989L10.4027 2.18027L10.5895 2.02064L10.8001 1.89498L11.0107 1.82026L11.1941 1.81007L11.2892 1.95272L11.3367 2.13951L11.3469 2.41801L11.296 2.70329L11.1126 3.2501V3.27727L11.1295 3.29425H11.1465L11.5065 3.17538L12.0465 3.00556L12.2979 2.98179L12.5084 3.02254L12.5186 3.03273L12.2639 3.30104L11.9888 3.52859L11.279 3.98369L10.362 4.59163L10.345 4.55766L10.3518 4.53049L10.3688 4.49653L10.5284 4.37087L11.0446 4.04143L11.3129 3.8818L11.4046 3.81388L11.4318 3.7901L11.4488 3.77312V3.75614L11.4386 3.73916L11.4318 3.73237H11.4148H11.3571L11.2892 3.74935L10.9427 3.87501L10.8001 3.92596L10.705 3.95992L10.6744 3.94294L10.6575 3.92596L10.6473 3.90897L10.6575 3.8818L10.6744 3.85803L10.6982 3.84105L10.7831 3.78331L11.3129 3.53878L11.7103 3.36217L11.8258 3.28406L11.8597 3.26028L11.8699 3.2433V3.23311L11.8428 3.20934L11.7918 3.19915L11.6424 3.23311L11.2212 3.37576L10.9835 3.46066L10.8918 3.48783L10.8578 3.49463H10.8341H10.8239H10.8171L10.8069 3.47765V3.47085V3.41991L10.8239 3.35198L10.9597 2.9716L11.1533 2.40102L11.1771 2.28895L11.1873 2.19725V2.16328L11.1703 2.13951L11.1295 2.12253H11.1194L11.1126 2.13951L11.0854 2.19725L11.0175 2.41801L10.851 2.94103L10.8001 3.03953L10.7492 3.10745L10.6914 3.14141L10.6235 3.12443L10.6133 3.07349L10.6235 3.01575L10.6744 2.87311L10.705 2.79499L10.7322 2.72028V2.66254L10.6914 2.61839L10.6473 2.62858L10.6065 2.66254L10.5216 2.77122L10.3518 3.10745L10.1922 3.4267L10.1174 3.53878L10.0835 3.56935L10.0427 3.58972H10.0325H10.0156L9.99858 3.56935V3.54557V3.50482L10.1005 3.2501L10.4707 2.55046L10.5963 2.31612L10.6405 2.2414L10.6473 2.21423V2.20744L10.6133 2.18027H10.5725L10.5284 2.20744L10.4808 2.24819L10.2771 2.50971L10.1344 2.71348L10.1005 2.74405L10.0733 2.76103H10.0563L10.0325 2.74405L10.0156 2.72028L10.0088 2.67952L9.99858 2.56744L10.0325 2.25838L10.0665 1.76932L10.0325 1.58252L9.93065 1.46705H9.91367L9.90688 1.47384L9.89669 1.48063L9.88989 1.5146V1.56554V1.82026L9.89669 2.01385L9.88989 2.17347L9.8831 2.22442L9.87291 2.2414L9.85593 2.24819L9.83895 2.25838L9.82197 2.24819L9.78121 2.20744L9.75404 2.18027L9.74725 2.13951L9.73027 2.01385V1.66743V1.25648L9.72008 1.18855L9.7031 1.12742L9.69631 1.11044L9.67933 1.09346L9.64536 1.08666V1.09346H9.63857L9.62838 1.11044L9.60461 1.17836L9.57065 1.4161L9.5197 2.10555L9.45857 2.81197L9.44158 2.92066L9.4246 2.99877L9.41781 3.01575L9.41102 3.02254H9.40083L9.39404 3.01575L9.38385 2.98858L9.31592 2.68631L9.30913 2.37385L9.36687 1.90177L9.38385 1.75913L9.39404 1.74215L9.38385 1.72516V1.71837H9.37705L9.25139 1.80328L9.18347 1.97989L9.16649 2.19725V2.43499L9.17328 2.64556L9.1563 2.7882L9.13932 2.79499H9.13252L9.11554 2.7882L9.09856 2.77122L9.01365 2.66254L8.90497 2.53348L8.8778 2.50971L8.85403 2.50291L8.83705 2.49272L8.82006 2.50291L8.80988 2.50971V2.5165V2.54367L8.82686 2.61159L8.89478 2.80518L8.9729 3.03953L8.97969 3.07349V3.08368V3.09047H8.9729H8.96271L8.95592 3.08368L8.93894 3.07349L8.92875 3.0667L8.92195 3.05651L8.89478 3.03273L8.84384 2.94103L8.71818 2.68631L8.56874 2.37385L8.53478 2.32291L8.50761 2.29914L8.49063 2.28895L8.48383 2.29914L8.47364 2.30593V2.35008L8.48383 2.40102L8.53478 2.55046L8.6944 2.95802L8.89478 3.47765L8.93894 3.65425V3.68142L8.92875 3.6984L8.92195 3.71539H8.90497Z" fill="#91ACDB"/>
<path fill-rule="evenodd" clip-rule="evenodd" d="M8.19527 1.66078L8.22244 1.63361H8.2632H8.31414L8.43301 1.70833L8.74547 2.00381L9.00698 2.36042L9.03755 1.97324L9.16661 1.49436L9.42812 0.79473L9.79832 0H9.8153V0.023774L10.0259 0.733597L10.1583 1.41285L10.2025 1.90871L10.1753 2.34683L10.3655 2.13966L10.5693 1.96984L10.8036 1.83739L11.0244 1.75927H11.2248H11.2417L11.3538 1.92909L11.4116 2.12947V2.40117L11.3708 2.67967L11.201 3.21628L11.4897 3.11779L11.7919 3.0159L12.0874 2.93778H12.3557L12.5833 3.00231V3.01929V3.03967L12.3387 3.31817L12.0331 3.56949L11.3097 4.04158L10.5693 4.52045L10.1821 4.80914L9.84247 5.12839L9.34661 5.69217L8.95943 6.34086L8.66735 7.04049H8.65037V7.02351L8.82698 6.14727L8.95264 5.26424L8.98661 4.68347L8.95943 4.10271L8.84396 3.71893L8.73528 3.34534L8.48395 2.84948L8.3481 2.59816L8.23942 2.36042L8.18848 2.02079L8.19527 1.66078ZM8.30735 2.34004L8.40584 2.58457L8.5349 2.81891L8.77943 3.30119L8.88811 3.64081L8.95604 3.98044L9.00698 4.52385V5.04688L8.92207 5.82802L8.77943 6.60237L9.0817 6.00463L9.47227 5.45783L9.93417 4.96876L10.6134 4.42196L11.2927 3.98384L11.9991 3.52874L12.2878 3.30119L12.5187 3.03967L12.3082 2.99892L12.0636 3.00571L11.5168 3.17552L11.1534 3.29439V3.27741V3.25024L11.2961 2.70004L11.347 2.41476V2.13626L11.2961 1.94947L11.201 1.80682H11.0176L10.807 1.88154L10.5897 2.02079L10.4029 2.18041L10.2704 2.34004L10.1753 2.50985H10.1515V2.49287L10.2093 1.98003L10.1685 1.38908L10.0259 0.76756L9.83228 0.0883033L9.49265 0.838882L9.24812 1.51814L9.10547 2.08192L9.0783 2.30268L9.10547 2.52004H9.0783L8.96623 2.32645L8.79981 2.11588L8.46018 1.77626L8.35829 1.70833H8.32433V2.04796L8.30735 2.34004Z" fill="white"/>
<path fill-rule="evenodd" clip-rule="evenodd" d="M4.5072 15.9862L4.53437 15.2119L4.60909 14.5055L4.74494 13.8975L4.9623 13.4017L4.67702 13.6462L4.34078 13.7956L4.00115 13.8636L3.72606 13.8058L3.67511 13.636V13.4594L3.78379 13.0654L3.99436 12.6851L4.24569 12.3386L3.87549 12.3556L3.55624 12.3658L3.26077 12.3556L2.99925 12.3047L2.80566 12.1722L3.12831 11.9684L3.48832 11.8088L4.33059 11.5405L5.20004 11.279L5.65514 11.1024L6.08987 10.8816L6.55516 10.5963L6.98309 10.2499L7.4314 9.79482L7.81858 9.28198L7.37027 10.1175L6.98309 10.9733L6.76573 11.5473L6.6129 12.1383L6.56195 12.5424L6.55516 12.9364L6.64007 13.5171L6.6978 13.8058L6.71478 14.0911L6.66384 14.4545L6.54497 14.7908L6.5212 14.7806L6.48723 14.7568L6.41931 14.6719L6.25289 14.3934L6.10006 14.0334L6.02534 13.7039L5.9744 13.9247L5.8827 14.1421L5.57024 14.6821L5.09815 15.3036L4.5072 15.9862Z" fill="#B4D6EF"/>
<path fill-rule="evenodd" clip-rule="evenodd" d="M4.58515 12.305L4.50704 12.3661L4.39836 12.4748L4.11986 12.7941L3.89231 13.1473L3.84137 13.3069L3.83457 13.368L3.84137 13.4258H3.86854L3.89231 13.419L3.95344 13.3578L4.11307 13.1405L4.30666 12.8722L4.39836 12.7873L4.43232 12.7601H4.47308V12.7703V12.7873L4.45609 12.828L4.39836 12.9537L4.30666 13.1473L4.28968 13.2254V13.2492L4.30666 13.2729H4.32364L4.33043 13.2661L4.37119 13.2322L4.50025 13.1133L4.8195 12.7363L5.14894 12.3491L5.28139 12.2133L5.33233 12.1725L5.3663 12.1454L5.37649 12.1556V12.1623L5.3663 12.2133L5.29158 12.3559L5.03007 12.7771L4.79233 13.1642L4.71761 13.3001L4.70063 13.351L4.69383 13.368V13.3748L4.70063 13.385L4.71081 13.3918H4.71761L4.73459 13.385L4.76176 13.3748L4.89421 13.2933L5.05384 13.1914L5.11497 13.1744H5.13875L5.15573 13.1812V13.1982V13.2084L5.14894 13.2492L5.08101 13.3918L4.83648 14.0507L4.74478 14.5703L4.75157 15.1035L4.77874 15.1103L4.78553 15.1205L4.80251 15.1103L4.8195 15.1035L4.83648 15.0594L4.85346 15.0016L4.89421 14.6484L4.92818 14.336L4.95535 14.2443L4.97233 14.2103L4.98931 14.2001H4.9961L5.00629 14.2103V14.2171L5.01308 14.2782V14.4616L5.02327 14.6722L5.03007 14.7401L5.03686 14.7639L5.04705 14.7741L5.05384 14.7639L5.06403 14.7571L5.0878 14.7163L5.13875 14.5635L5.25762 14.1254L5.37649 13.6873L5.42403 13.5344L5.4512 13.5005L5.458 13.4869H5.46819L5.47498 13.4937V13.5277L5.46819 13.6363L5.43422 13.9556L5.40026 14.3122L5.39347 14.4277V14.4446L5.40026 14.4548V14.4616H5.41045L5.44441 14.4446L5.48517 14.4107L5.57687 14.285L5.75347 13.925L5.92329 13.5956L5.95725 13.5344L5.99121 13.5005L6.00819 13.4869H6.02518L6.05574 13.4937L6.07612 13.5277L6.09989 13.5854L6.15763 13.7382L6.25273 13.9828L6.29348 14.0677L6.31046 14.0914H6.31726H6.32745H6.33424V14.0846L6.34443 14.0507L6.33424 13.9386L6.2765 13.5854L6.20178 13.1982L6.19159 13.0556V13.0148L6.20178 12.9978V12.9876L6.20857 12.9808V12.9876H6.21876L6.22556 13.0046L6.25273 13.0725L6.31726 13.3069L6.41235 13.6295L6.43613 13.6805L6.45311 13.711L6.4633 13.7212L6.47009 13.728H6.48028L6.48707 13.711L6.49726 13.6873L6.50405 13.6363V13.5175L6.47009 13.2084L6.43613 12.7601L6.44631 12.6854L6.4633 12.6276L6.48707 12.6005L6.52782 12.5937L6.54481 13.0725L6.61273 13.4767L6.67387 13.7722L6.68745 14.0745L6.6467 14.4209L6.52782 14.7571L6.50405 14.7299L6.47009 14.6994L6.40216 14.6043L6.23575 14.3258L6.09989 13.9895L6.02518 13.6805L5.92329 13.9895L5.78744 14.2782L5.40026 14.8828L4.98931 15.4126L4.541 15.9118L4.52402 15.4465L4.57496 14.7741L4.71081 14.0405L4.8127 13.7212L4.94516 13.4258L4.66666 13.6194L4.3644 13.762L4.03496 13.8401L3.74967 13.7892L3.69872 13.5514L3.74967 13.2254L3.92627 12.8212L4.2727 12.3491L3.84137 12.3729L3.41344 12.3559L3.05003 12.2982L2.92437 12.2405L2.88362 12.2133L2.85645 12.1725L3.05003 12.0367L3.41344 11.8669L3.95344 11.6733L4.68365 11.4729L4.67685 11.4797L4.66666 11.4967L4.6327 11.5238L4.50704 11.5816L4.11986 11.7072L3.79042 11.8159L3.68174 11.8669L3.64778 11.8839L3.6308 11.9008V11.911L3.64099 11.9178H3.64778L3.69193 11.928H3.8074H3.96703L4.03496 11.9348L4.06212 11.945L4.07911 11.9518V11.9789L4.06892 11.9857L4.05194 11.9959L3.95344 12.0299L3.6308 12.0876L3.43721 12.1216L3.36928 12.1386L3.3523 12.1454H3.34551V12.1556L3.3523 12.1793L3.36249 12.1895L3.37947 12.1963L3.50514 12.2133L3.89231 12.1963L4.39836 12.1725L4.49006 12.1895L4.55798 12.2133L4.58515 12.2473V12.305Z" fill="#7393CC"/>
<path fill-rule="evenodd" clip-rule="evenodd" d="M2.78906 12.1554L3.12869 11.9346L3.49209 11.7852L4.33437 11.5135L5.19363 11.252L5.64873 11.0686L6.08346 10.8512L6.73215 10.4131L7.30951 9.89005L7.79518 9.26514H7.82235V9.29231L7.37744 10.1176L6.99026 10.9769L6.7797 11.5508L6.62686 12.1384L6.5895 12.5493V12.9433L6.67441 13.5241L6.72196 13.8128L6.74913 14.1082L6.69818 14.4479L6.57252 14.7875L6.54535 14.8045H6.50459L6.46384 14.7705L6.36875 14.6618L6.15818 14.2814L6.02572 13.8603L5.8627 14.2475L5.61137 14.6992L5.13929 15.3207L4.55173 16H4.52456V15.9728V15.1984L4.59249 14.5056L4.70117 13.9894L4.84381 13.5682L4.65702 13.6939L4.41249 13.806L4.15437 13.8739L3.91323 13.9079L3.71285 13.8569L3.66191 13.6531V13.4426L3.74681 13.1573L3.86568 12.8958L4.20531 12.4067H3.89285L3.5736 12.4237H3.27134L3.00982 12.3659L2.80604 12.2301V12.2063L2.78906 12.1554ZM2.8502 12.1791L3.04378 12.2878L3.28832 12.332H3.86908H4.24607H4.27324V12.3558L3.93361 12.8618L3.79776 13.1301L3.71625 13.4188V13.6192L3.757 13.789L3.93361 13.8297L4.16116 13.8128L4.40569 13.7448L4.63324 13.6362L4.80306 13.5173L4.9457 13.3848L4.96948 13.3678V13.395L4.77928 13.9079L4.63324 14.5158L4.56871 15.195L4.54154 15.9286L5.09854 15.2664L5.54345 14.6788L5.85591 14.1456L5.951 13.9079L6.00195 13.6803H6.02912L6.08006 13.9079L6.17176 14.1694L6.39931 14.6177L6.48422 14.7196L6.50799 14.7433L6.62007 14.4037L6.66082 14.0641L6.64384 13.7856L6.63026 13.5275L6.54535 12.9807V12.6105L6.58611 12.2369L6.71517 11.7003L6.868 11.1908L7.20762 10.4233L7.57782 9.68288L7.09555 10.1719L6.55554 10.6203L5.95779 10.9599L5.1325 11.2995L4.34116 11.544L3.52266 11.7954L3.18303 11.9482L2.8502 12.1791Z" fill="white"/>
<path fill-rule="evenodd" clip-rule="evenodd" d="M6.9252 4.29639L6.93199 4.2862H6.94897L6.95916 4.30318L6.97614 4.32016L7.05086 4.46281L7.23766 4.95187L7.472 5.60056L7.59087 5.81113L7.64181 5.87226L7.66559 5.87906H7.69276L7.70974 5.87226V5.86207L7.71653 5.84509V5.77037L7.67578 5.49867L7.60785 5.03678L7.61464 4.95187L7.63162 4.88394L7.66559 4.84319L7.72672 4.8364L7.7505 4.84319L7.77766 4.87715L7.81842 4.99602L7.87616 5.32206L7.9271 5.59377L7.94408 5.64471L7.96106 5.66849L7.96786 5.68547H7.97805H7.98823H7.99503L8.00182 5.67867V5.66849L8.01201 5.63452L8.0188 5.51565L8.01201 5.16244L8.00182 4.61564L8.02899 4.41186L8.04597 4.36431L8.06295 4.34733L8.07993 4.33714L8.10371 4.34733L8.1139 4.36431L8.13767 4.43224L8.17163 4.67337L8.16484 5.38999L8.15465 6.06585L8.17843 6.27642L8.19541 6.31038L8.2056 6.32736L8.22258 6.33416H8.23956H8.24635L8.26333 6.31718L8.2905 6.25944L8.34145 6.03189L8.43315 5.32206L8.54183 4.52394L8.60296 4.25224L8.63353 4.17752L8.65051 4.15374L8.66749 4.14355L8.68447 4.15374L8.70145 4.17072L8.72862 4.23525L8.73542 4.43903L8.68447 5.0198L8.64372 5.44093L8.65051 5.57679V5.59377L8.6607 5.61075L8.66749 5.61754H8.67768H8.68447L8.69466 5.61075L8.71164 5.58358L8.7524 5.48509L8.87127 5.13867L9.10561 4.46281L9.22448 4.23525L9.25165 4.20469L9.27543 4.18771H9.32637L9.34335 4.20469V4.23525V4.32016L9.27543 4.58168L9.01391 5.2881L8.76259 5.96396L8.70145 6.19831V6.26623L8.71164 6.29001L8.71844 6.31038L8.74561 6.31718L8.76259 6.31038L8.77957 6.29001L8.8441 6.18132L9.0241 5.78736L9.24146 5.30508L9.33316 5.15565L9.38411 5.1115L9.40109 5.1047H9.41807L9.46901 5.17263V5.22357L9.45203 5.28131L9.31618 5.5666L9.21429 5.77037L9.19052 5.85528V5.88924L9.20071 5.91302H9.21429H9.23467L9.26524 5.87906L9.35014 5.76019L9.58788 5.37301L9.89015 4.88394L10.009 4.73451L10.0566 4.70055L10.0837 4.69036L10.1007 4.70055L10.1075 4.71753L10.1177 4.7413L10.0905 4.82621L9.95808 5.07753L9.50298 5.80434L9.08184 6.4768L8.95617 6.71454L8.929 6.79605V6.82322V6.8402L8.94599 6.85718H8.96297L8.99014 6.847L9.01391 6.83001L9.15656 6.67039L9.53694 6.1134L9.83242 5.67867L9.9411 5.54282L9.98185 5.50886L9.99883 5.49867H10.009L10.026 5.53263V5.57679L9.96487 5.70245L9.73732 6.03868L9.51996 6.35114L9.46901 6.45982L9.45883 6.49378L9.47581 6.52095L9.49279 6.53793H9.51996L9.54373 6.52095L9.5709 6.50397L9.73732 6.34095L10.2026 5.79415L10.6238 5.28131L10.7732 5.12168L10.8343 5.08772L10.8581 5.07753H10.8751L10.9192 5.08772L10.943 5.1047L10.9668 5.14546L10.96 5.17942L10.9498 5.21338L10.8921 5.29829L10.7154 5.49867L10.4879 5.71943L10.1517 6.04887L10.1007 6.1134L10.0668 6.16434V6.19151V6.20849L10.0837 6.24246L10.2196 6.19831L10.3792 6.13038L10.5388 6.07264L10.6747 6.03189L10.7256 6.0217L10.7562 6.03189L10.7834 6.05566V6.10661L10.7562 6.14057L10.7154 6.17453L10.5966 6.25944L10.2603 6.43605L9.79845 6.68737L9.65581 6.80624L9.62864 6.86398V6.92511H9.64562L9.65581 6.9319L9.70336 6.91492L9.846 6.847L10.2875 6.57869L10.6475 6.35114L10.9939 6.15755L11.1366 6.09642L11.2453 6.06585L11.2894 6.05566L11.3234 6.06585L11.337 6.08962L11.3472 6.12359V6.13038V6.14736L11.3132 6.18132L11.2045 6.25944L10.8411 6.45982L10.3113 6.7553L10.1415 6.89115L10.1177 6.94888L10.1245 6.99983L10.1347 7.01681L10.1517 7.0236H10.2026L10.3453 6.99983L10.7664 6.87417L11.0517 6.77907L11.2894 6.72133L11.3709 6.71454H11.3981L11.4219 6.72133L11.4389 6.76209L11.4321 6.78926L11.4151 6.82322L11.3811 6.85718L11.3302 6.89115L11.1604 6.95907L10.6815 7.1187L10.2773 7.24436L9.91393 7.37682L9.66939 7.51267L9.61166 7.58059V7.64852L9.62185 7.65531L9.62864 7.6655H9.63883L9.6626 7.65531L9.78827 7.62135L10.1924 7.44474L10.9022 7.15945L11.0449 7.1187L11.1536 7.10172L11.1943 7.10851L11.2283 7.1187L11.2555 7.16964L11.2453 7.19342L11.2215 7.21719L11.1298 7.26814L10.8683 7.37002L10.6747 7.43795L10.5151 7.51267L10.4641 7.55682L10.437 7.59757L10.4471 7.63833L10.4981 7.68927L10.5287 7.69946H10.5728L10.6985 7.67229L11.0347 7.58739L11.3709 7.49569L11.6834 7.43795L11.8091 7.42776L11.9041 7.44474L11.9551 7.48889L11.9687 7.55682L11.9619 7.56361L11.9551 7.5704L11.9109 7.58739L11.7785 7.62135L11.3811 7.68927L11.0347 7.75041L10.7392 7.81494L10.6305 7.85909L10.5626 7.89984L10.5558 7.92701V7.95079L10.5626 7.97796L10.5966 8.00173L10.8921 8.04249L11.2555 8.07645L11.6087 8.10362L11.9041 8.14438L12.0196 8.17834L12.0977 8.21909L12.1317 8.27004L12.1215 8.33796L12.1147 8.34815L12.0875 8.35495L12.0128 8.36513L11.7615 8.34815L11.0347 8.21909L10.2943 8.09343L10.043 8.07645L9.96487 8.08664L9.9411 8.09343L9.93091 8.11041L9.92411 8.13758L9.93091 8.15456L9.94789 8.16136L9.99883 8.18853L10.0736 8.20211L10.5049 8.28023L11.0789 8.38891L11.2623 8.46363L11.3132 8.51457L11.3234 8.56552L11.2962 8.5825H11.2623H11.1604L10.8751 8.53155L10.5049 8.46363H10.437L10.3962 8.48061L10.3792 8.51457V8.53155L10.386 8.55872L10.3962 8.5757L10.42 8.59269L10.4709 8.61646L10.6577 8.68439L11.1943 8.83722L11.9891 9.05458L12.2404 9.17345L12.2811 9.20741L12.2981 9.23119L12.3083 9.28892L12.2913 9.29911H12.2743H12.2132L12.0468 9.26515L11.5645 9.1293L11.0177 8.96967L10.8343 8.9459H10.8072L10.7834 8.95269L10.7664 8.98665L10.7562 8.99684L10.7664 9.00364L10.7732 9.0376L10.8513 9.12251L11.1026 9.33987L11.4558 9.66931L11.517 9.73723L11.5475 9.79497L11.5577 9.82893V9.84591L11.534 9.88667H11.517H11.5068L11.4728 9.87308L11.3709 9.82214L11.1026 9.61836L10.8751 9.45194L10.6747 9.3059L10.5796 9.26515L10.5151 9.25496L10.4641 9.27534L10.4471 9.28892L10.437 9.32289L10.4709 9.38402L10.5388 9.45194L10.7154 9.61157L10.977 9.8629L11.0109 9.91384L11.0347 9.96478L11.0007 10.0497H10.9838H10.9668L10.926 10.0225L10.8072 9.91384L10.4709 9.54364L10.2094 9.24138L9.96487 8.98665L9.85619 8.89495L9.77128 8.84401L9.73053 8.83722L9.70336 8.84401L9.67958 8.86099L9.6626 8.89495V8.91194L9.66939 8.92892L9.70336 8.99684L9.846 9.16326L10.3181 9.64553L10.909 10.2433L11.0687 10.4606L11.0856 10.5048L11.0958 10.5354V10.5523L11.0789 10.5693L11.0619 10.5795L11.0347 10.5693L10.9838 10.5523L10.8581 10.4606L10.5151 10.1414L10.2773 9.90365L10.0566 9.72025L9.96487 9.66251L9.89015 9.63534L9.83242 9.64553L9.79845 9.69308L9.80525 9.72025L9.81543 9.74402L9.85619 9.81195L9.97506 9.98856L10.0905 10.1414L10.1754 10.2772L10.1924 10.335V10.3757L10.1585 10.4029L10.1007 10.4097L10.0905 10.4199L10.0736 10.4097L10.0328 10.3859L9.93091 10.301L9.67958 9.99875L9.32637 9.61157L9.25844 9.55044L9.20071 9.52666H9.15656L9.13278 9.56742V9.5844L9.13957 9.61157L9.17354 9.6795L9.31618 9.88667L9.76449 10.4776L10.3792 11.3029L10.5558 11.6086L10.5796 11.6561L10.5898 11.7003L10.5796 11.7342L10.5626 11.7512L10.5456 11.758L10.5219 11.7512L10.4641 11.7071L10.2943 11.5305L9.846 10.9667L9.40109 10.3927L9.24146 10.2433L9.21429 10.2263L9.19052 10.2161L9.17354 10.2263L9.16675 10.2331L9.15656 10.2433V10.2501V10.2603V10.2671L9.20071 10.3418L9.34335 10.5523L9.61166 10.9735L9.65581 11.0584L9.67958 11.1433L9.66939 11.201L9.63883 11.235H9.59468L9.55392 11.201L9.45203 11.0686L9.22448 10.6474L8.99014 10.1991L8.93919 10.1312L8.88825 10.0904L8.8441 10.0837L8.81013 10.1074L8.80334 10.1244V10.1414L8.82032 10.1821L8.87127 10.3418L9.07165 10.8071L9.44184 11.6833L9.53694 12.0195V12.1282L9.51996 12.1622L9.49279 12.1893H9.47581L9.45203 12.1792L9.41128 12.1282L9.31618 11.9618L9.09882 11.4116L8.85429 10.8139L8.79655 10.7154L8.74561 10.6372L8.72862 10.6203L8.70145 10.6135H8.68447L8.66749 10.6203H8.6607L8.65051 10.6305L8.64372 10.6372V10.6542L8.65051 10.7493L8.72862 11.0414L8.82712 11.4456V11.5237V11.5644L8.82032 11.5814L8.81013 11.5882H8.79655L8.76938 11.5814L8.76259 11.5746L8.74561 11.5644L8.71164 11.5135L8.65051 11.3539L8.53504 10.8648L8.39918 10.301L8.33126 10.1176L8.2905 10.0735L8.24635 10.0565H8.23956H8.22937L8.22258 10.0667L8.21239 10.0837V10.1006L8.23956 10.2603L8.37541 10.7969L8.59277 11.6392L8.61994 11.9346L8.60976 11.9856L8.59277 12.0297L8.54183 12.0603L8.52485 12.0535L8.51805 12.0365L8.49089 12.0026L8.45013 11.8667L8.3822 11.4897L8.2973 11.0516L8.24635 10.9157L8.21239 10.8818H8.17163H8.16484V10.892L8.14786 10.9259V11.0516L8.17163 11.4625L8.2056 12.1044L8.19541 12.2301L8.17843 12.315L8.16484 12.349L8.14786 12.366L8.12069 12.3727L8.09692 12.366L8.07993 12.3558L8.06974 12.3388L8.04597 12.2878L8.0188 12.0943L7.97805 11.5237L7.93729 10.858L7.89314 10.6372L7.87616 10.6033L7.85918 10.5795L7.84219 10.5693L7.82521 10.5625L7.81842 10.5693L7.80823 10.5863L7.79125 10.6203L7.78446 10.7561V11.1501V11.6663L7.76068 11.8429L7.73351 11.8939L7.69276 11.9109L7.68257 11.9007L7.67578 11.8837L7.64861 11.8259L7.61464 11.6324L7.5637 11.0516L7.51615 10.4437L7.48219 10.2501L7.46521 10.2263L7.45502 10.1991L7.44823 10.1923H7.43124L7.42106 10.1991L7.41426 10.2093L7.39728 10.2603L7.38709 10.4437L7.42106 11.0346L7.45502 11.9109L7.42106 12.2131L7.39728 12.3048L7.37011 12.3218L7.34634 12.332L7.32936 12.3218L7.31238 12.298L7.27841 12.2403L7.24445 12.0195L7.22067 11.4456L7.20369 11.0754L7.19351 10.9667L7.18671 10.9497L7.17652 10.9327L7.16973 10.9259H7.15954H7.15275L7.14596 10.9327L7.11879 10.9565L7.06784 11.0584L6.93199 11.4048L6.77236 11.8158L6.69765 11.9516L6.66368 11.9856H6.62972L6.60595 11.9346V11.8667L6.6467 11.6493L6.8335 11.0754L7.0169 10.5286L7.06105 10.3248L7.05086 10.2671L7.02709 10.2263H7.01011H6.99992L6.95916 10.2603L6.86746 10.3757L6.62293 10.7969L6.26972 11.3878L6.11688 11.5746L6.08292 11.5882L6.05575 11.6086L6.0082 11.5984L5.99801 11.5814V11.5644L6.0082 11.5135L6.06594 11.3776L6.31047 11.0006L6.59576 10.5523L6.66368 10.3859L6.67387 10.3248L6.6467 10.284H6.62293L6.59576 10.2942L6.52104 10.352L6.35123 10.5455L6.12368 10.8071L6.02518 10.8818H5.97424L5.94028 10.875L5.93009 10.858V10.841L5.94707 10.7969L6.03198 10.6712L6.31726 10.3418L6.67387 9.9478L6.77236 9.78818L6.78935 9.72704L6.77236 9.68629H6.76557L6.7384 9.69308L6.68746 9.72704L6.52783 9.88667L6.08292 10.4097L5.5531 11.0244L5.34253 11.2282L5.26442 11.2791L5.24064 11.2961H5.21687V11.2791V11.2622L5.23045 11.201L5.32555 11.0414L5.62782 10.5693L5.97424 10.0497L6.07613 9.8561L6.0999 9.78818V9.76101V9.74402L6.08292 9.73723H6.06594L6.03198 9.75421L5.92329 9.84591L5.6448 10.1584L5.25762 10.5863L5.098 10.7154L5.03007 10.7391L4.97234 10.7289L4.96215 10.6984L4.97234 10.6474L5.03687 10.5354L5.2746 10.2772L5.46819 10.0565L5.50895 9.98176L5.51914 9.9478L5.50216 9.93082L5.47499 9.90365L5.45121 9.91384H5.42404L5.29159 9.98176L5.08102 10.0837L4.97913 10.1006L4.89422 10.0667V10.0327L4.9112 9.99875L5.0063 9.92063L5.29838 9.74402L5.63801 9.55044L5.69574 9.49949L5.72971 9.45874L5.74669 9.41798L5.7365 9.37383L5.72971 9.36704H5.71952H5.70254H5.68556L5.57008 9.39081L5.20668 9.52666L4.65988 9.72025L4.46629 9.75421L4.39836 9.74402L4.37119 9.70327V9.66251L4.39157 9.64553L4.41535 9.61836L4.60893 9.52666L5.24743 9.3059L6.04217 9.03081L6.29349 8.89495L6.36142 8.82703L6.36821 8.7591L6.35123 8.75231L6.33424 8.74212H6.29349L6.15085 8.77608L5.75348 8.93571L5.34932 9.08854L5.19989 9.1293H5.13875L5.098 9.12251L5.08781 9.09534V9.07156L5.11498 9.04439L5.15574 9.01382L5.42404 8.88477L5.71273 8.73533L5.76367 8.70137L5.78744 8.6674V8.64363V8.62665L5.77046 8.61646L5.76367 8.60967H5.75348H5.71952L5.58706 8.64363L5.15574 8.78627L4.4561 9.02062L4.20478 9.07156H4.15383L4.13006 9.06137L4.0961 9.02062L4.11987 8.96288L4.17761 8.90175L4.3644 8.81005L4.88743 8.68439L5.25762 8.59948L5.32555 8.5757L5.3663 8.54853L5.39348 8.51457V8.4908L5.37649 8.46363L5.34253 8.43985L5.22366 8.42287L4.88743 8.40589L4.50025 8.38891L4.37119 8.35495L4.34063 8.33117L4.32365 8.29721V8.28023L4.33044 8.27004L4.34742 8.26325L4.37119 8.25306L4.53422 8.22928L5.06404 8.19532L5.86216 8.14438L6.15764 8.08664L6.25273 8.04249L6.2833 8.01871L6.29349 7.99494V7.97796H6.2833L6.26972 7.96777L6.24255 7.96098L6.07613 7.944L5.50895 7.93381L4.78554 7.91003L4.53422 7.88286L4.4561 7.86588L4.43912 7.8489L4.43233 7.84211L4.42214 7.83192L4.43233 7.80814L4.44931 7.80135L4.46629 7.79116L4.58516 7.76739L4.97913 7.75041L5.44442 7.73343L5.62103 7.69946L5.66857 7.67229L5.70254 7.63833L5.69574 7.62135L5.68556 7.61456L5.63801 7.58739L5.46819 7.56361L4.92818 7.51267L4.1878 7.43795L3.93647 7.37682L3.86854 7.33606L3.85156 7.31908V7.29531L3.85836 7.27832L3.88552 7.26134L3.94326 7.24436L4.13006 7.23417L4.66667 7.27832L5.17272 7.31908H5.34932L5.41046 7.3021L5.42404 7.28512L5.43423 7.27832V7.25115L5.41046 7.22738L5.32555 7.16964L5.03687 7.05077L4.65988 6.88096L4.59874 6.8402L4.5512 6.79605L4.53422 6.7553L4.54101 6.71454L4.55799 6.69756L4.57497 6.68737H4.6429L4.8263 6.7553L5.33234 7.00662L5.76367 7.21719L5.89612 7.26814H5.92329H5.94028L5.96405 7.25115V7.21719L5.94707 7.17644L5.86216 7.09153L5.57687 6.90813L5.29838 6.72813L5.22366 6.65341L5.20668 6.61945V6.58548L5.23045 6.5685H5.2814L5.41046 6.60246L5.78744 6.77907L6.20179 6.97266L6.35123 7.01681H6.40217L6.42934 6.98964L6.43613 6.97266L6.42934 6.94888L6.38519 6.90813L6.23575 6.77907L5.7365 6.48699L5.1897 6.14736L5.098 6.07944L5.03007 6.0217L5.01309 5.98774L5.0063 5.97075L5.03007 5.93L5.04705 5.90283H5.07083H5.098L5.24743 5.96396L5.68556 6.19831L6.07613 6.41906L6.20179 6.47001H6.22556H6.24255H6.25273L6.25953 6.45303L6.27651 6.41906L6.25273 6.36812L6.14066 6.24925L5.74669 5.94698L5.33234 5.62773L5.26442 5.54962L5.22366 5.49188L5.21687 5.46471V5.44773L5.24064 5.40697L5.2746 5.38999H5.31536L5.3663 5.40697L5.41725 5.44093L5.69574 5.66849L5.95726 5.87906L6.0082 5.91302L6.05575 5.93H6.08971L6.11688 5.91302L6.13386 5.88924V5.85528L6.08971 5.76019L5.90631 5.50886L5.68556 5.17942L5.62782 5.04357L5.63801 4.99602L5.66178 4.96206L5.69574 4.95187L5.7365 4.97904L5.83839 5.07753L6.06594 5.44093L6.29349 5.77717L6.33424 5.82811L6.3784 5.86207L6.39538 5.87226H6.41236L6.42934 5.86207L6.43613 5.84509L6.45312 5.8383V5.82132V5.78736L6.43613 5.75339L6.36142 5.5666L6.27651 5.3832L6.26972 5.34924V5.33905V5.33225L6.2833 5.31527H6.29349H6.31047L6.34444 5.30508L6.36142 5.31527L6.3784 5.33225L6.48028 5.4749L6.73161 5.95377L7.0169 6.50397L7.07803 6.59567L7.12898 6.65341L7.15275 6.67039H7.17652H7.19351L7.21049 6.65341L7.22747 6.63643V6.61945V6.55152L7.15954 6.34095L6.89123 5.73641L6.61274 5.09451L6.54481 4.87715V4.84319V4.80923L6.555 4.79224L6.57199 4.78545L6.60595 4.77526L6.62293 4.79224L6.63991 4.80243L6.72482 4.9281L6.90822 5.33905L7.11199 5.79415L7.15275 5.87226L7.20369 5.93L7.22067 5.93679L7.24445 5.94698L7.27841 5.93679L7.2886 5.91981L7.29539 5.90283V5.85528L7.26143 5.68547L7.1018 5.1964L6.90822 4.57488L6.87425 4.36431V4.33035L6.88444 4.31337L6.9252 4.29639Z" fill="#404797"/>
<path fill-rule="evenodd" clip-rule="evenodd" d="M9.78821 6.97269L9.7984 6.98967L9.78821 7.01684L9.73047 7.07458L9.5267 7.25118L9.27537 7.47194L9.20065 7.57043L9.17348 7.61458L9.18367 7.63836V7.64855H9.19047H9.22443L9.31613 7.6044L9.60481 7.45496L9.90708 7.28515L10.0158 7.24439L10.0565 7.2342H10.0667L10.0735 7.24439V7.25118V7.26137L10.0497 7.28515L9.95803 7.37005L9.63878 7.57043L9.19047 7.85912L9.05461 7.98478L9.02405 8.03572L9.01386 8.05271L9.02405 8.06969L9.03763 8.07648H9.04782H9.0648L9.13952 8.04252L9.36707 7.89308L9.6116 7.73345L9.70331 7.6893H9.73047L9.75425 7.69949V7.73345L9.74746 7.75044L9.72029 7.76742L9.6116 7.84214L9.49274 7.91685L9.45877 7.95082V7.9678V7.98478L9.46896 7.99497L9.49274 8.00176L9.57085 7.99497L9.7984 7.92704L10.0565 7.84893L10.1516 7.84214L10.1856 7.84893L10.2026 7.8761L10.1924 7.88289L10.1856 7.89308L10.1686 7.91006L10.0735 7.95082L9.81538 8.02554L9.47575 8.12742L9.36707 8.18856L9.33311 8.21233L9.32632 8.24629L9.35009 8.26327H9.38405L9.49274 8.22931L9.56066 8.21233L9.6116 8.19535H9.63878L9.65576 8.20214L9.66255 8.21233L9.66934 8.22931L9.66255 8.24629L9.64557 8.26327L9.59462 8.28705L9.435 8.3312L9.25839 8.38214L9.22443 8.39913L9.20745 8.41271L9.19047 8.45686L9.20065 8.46366H9.20745L9.24141 8.47384H9.3433L9.66255 8.41271L10.0905 8.34818L10.2365 8.35497H10.2603L10.2773 8.37196L10.2943 8.39913L10.2875 8.41271L10.2773 8.4229L10.2365 8.43988L10.0905 8.47384L9.90708 8.52479L9.83916 8.55875L9.81538 8.6097L9.82218 8.62668L9.83236 8.63347L9.87312 8.64366L9.99878 8.66743L10.1686 8.7014L10.2026 8.70819L10.2195 8.72517L10.2365 8.77611L10.2263 8.7863L10.2195 8.79309L10.1754 8.80328L10.0497 8.79309L9.68632 8.74215L9.29915 8.68441H9.16669L9.12254 8.69121L9.11575 8.7014L9.10556 8.71838V8.72517H9.11575L9.13273 8.74215L9.20745 8.7863L9.46896 8.86102L9.8901 9.00366L10.026 9.07838L10.0565 9.12253V9.16329L10.0429 9.17348H10.0158L9.94104 9.16329L9.76444 9.10555L9.58783 9.05461L9.5267 9.04442H9.50972L9.49274 9.0614L9.50292 9.07838L9.51991 9.10555L9.57764 9.1565L9.77123 9.27537L10.009 9.41801L10.0837 9.48594L10.1007 9.5165V9.54367L10.0905 9.55047H10.0735L10.0327 9.54367L9.92406 9.49952L9.6116 9.30593L9.25839 9.10555L9.12254 9.05461H9.08179L9.05461 9.07159V9.08857L9.0648 9.10555L9.11575 9.1565L9.29915 9.27537L9.49274 9.40782L9.5267 9.43499L9.55387 9.45877V9.46896V9.47575L9.54368 9.49273L9.53689 9.49952L9.50972 9.50971L9.45198 9.49273L9.29915 9.41801L9.12254 9.3331L9.08858 9.32291L9.0648 9.31612L9.03763 9.32291L9.02405 9.3399V9.35009L9.03084 9.35688L9.04782 9.38405L9.11575 9.44178L9.35009 9.58443L9.63878 9.76104L9.72029 9.83915L9.73727 9.87311V9.89689L9.72029 9.90368H9.69651L9.62859 9.8867L9.45198 9.77802L9.26519 9.66254L9.22443 9.64556L9.20065 9.63537L9.17348 9.64556L9.1565 9.66254V9.66934V9.67952L9.18367 9.72028L9.25839 9.83915L9.41123 10.0497L9.42481 10.1007L9.44179 10.1414V10.1652L9.41802 10.1924H9.41123L9.40104 10.1822L9.36707 10.1652L9.29235 10.0667L9.08858 9.75424L8.80329 9.31612L8.67763 9.17348L8.61989 9.12933H8.60291H8.57574V9.13952L8.58253 9.16329L8.6097 9.22442L8.73536 9.41801L8.95612 9.795L9.01386 9.93764V9.98859L8.99008 10.0158H8.9799L8.96292 10.0056L8.92895 9.9716L8.84404 9.84594L8.72857 9.66934L8.66744 9.6116L8.64366 9.59462L8.62668 9.60141L8.61989 9.6116V9.61839V9.62858L8.65046 9.69311L8.78631 9.90368L8.9799 10.2263L9.03084 10.352V10.3927L9.00707 10.4199H8.99008L8.9731 10.4029L8.92216 10.3418L8.80329 10.1652L8.69461 9.98179L8.64366 9.93085L8.62668 9.92066H8.6097L8.60291 9.93085L8.59272 9.95462L8.60291 10.0327L8.64366 10.2501L8.7014 10.5456V10.6475L8.68442 10.6814L8.66065 10.6984L8.65046 10.6882H8.64366L8.62668 10.6543L8.59272 10.5626L8.5248 10.2671L8.45008 9.90368L8.39913 9.795L8.37536 9.77122L8.34819 9.76104H8.3414V9.77122L8.33121 9.78821V9.85613L8.34819 10.0395L8.37536 10.318L8.36517 10.4199L8.34819 10.4539L8.32441 10.4607H8.31423L8.30743 10.4539L8.29045 10.4199L8.25649 10.3112L8.17837 9.95462L8.05271 9.41801L7.99497 9.2414L7.97799 9.21423L7.96101 9.19725L7.94403 9.19046H7.92705L7.92026 9.19725V9.20744V9.2414L7.93724 9.36707L8.02894 9.74405L8.1546 10.3418L8.17837 10.5626L8.17158 10.6305L8.16479 10.6543L8.14781 10.6644H8.13762L8.13083 10.6543L8.11385 10.6373L8.08667 10.5524L8.02894 10.2841L7.96781 9.98859L7.95082 9.93764L7.93724 9.90368L7.92026 9.8867H7.91007H7.90328H7.89309V9.89689H7.88629L7.8761 9.92066V9.98859L7.89309 10.1822L7.91007 10.4369L7.90328 10.5286L7.89309 10.5524L7.8761 10.5626H7.85912L7.85233 10.5524L7.83535 10.5116L7.7912 10.3927L7.75044 10.2501L7.72667 10.1992L7.70969 10.1822L7.6927 10.1754H7.67573L7.65874 10.1822L7.64855 10.1992L7.64176 10.2263L7.62478 10.386L7.61459 10.5694L7.6078 10.6033L7.59082 10.6305L7.54666 10.6475L7.53987 10.6373L7.53308 10.6305L7.52289 10.5863L7.53308 10.4607L7.57384 10.0905L7.62478 9.71009V9.57764L7.61459 9.53348L7.6078 9.52669L7.59761 9.5165H7.59082L7.58063 9.52669L7.57384 9.56065L7.54666 9.67952L7.50591 9.87311L7.47195 9.93764L7.45497 9.95462L7.43119 9.96481H7.421V9.95462V9.93764L7.41421 9.92066L7.421 9.81198V9.65235L7.41421 9.61839L7.40402 9.60141L7.39723 9.59462H7.38704H7.38025L7.37006 9.60141L7.36327 9.61839L7.3361 9.69311L7.28855 9.92066L7.19345 10.3418L7.13571 10.4946L7.11194 10.5354L7.09496 10.5456L7.07798 10.5524L7.06779 10.5456V10.5354L7.061 10.5286L7.06779 10.4607L7.11194 10.2501L7.15949 9.95462V9.86292V9.84594L7.1527 9.83915L7.12892 9.82896H7.11874L7.11194 9.83915L7.08477 9.8799L6.99307 10.0327L6.84024 10.2841L6.76552 10.369L6.73835 10.386H6.71458V10.3758L6.70439 10.3588L6.71458 10.318L6.76552 10.1924L6.94892 9.82896L7.15949 9.41801L7.22062 9.26518L7.22742 9.21423L7.22062 9.20744L7.21043 9.19725L7.20364 9.19046V9.19725L7.18666 9.20744L7.15949 9.2482L7.08477 9.38405L6.94892 9.6116L6.92515 9.65235L6.89118 9.67952L6.85722 9.68632H6.83345L6.82326 9.66934V9.65235L6.84024 9.60141L6.91496 9.48594L6.99307 9.35688L7.01005 9.32291V9.30593V9.28895L6.99986 9.28216L6.99307 9.27537L6.98288 9.28216H6.97609L6.9659 9.28895L6.90816 9.35688L6.75533 9.57764L6.56174 9.84594L6.48703 9.92066L6.47004 9.93085H6.45306L6.43608 9.92066L6.42929 9.90368L6.43608 9.8799L6.46325 9.82217L6.56174 9.66934L6.66363 9.5165L6.68061 9.48594L6.68741 9.45877V9.45197V9.44178L6.68061 9.43499L6.67382 9.4248L6.66363 9.43499H6.64665L6.59571 9.46896L6.43608 9.60141L6.20853 9.77802L6.15759 9.81198L6.11683 9.82896H6.10664H6.08966L6.07608 9.80519L6.06589 9.795L6.07608 9.78821L6.08966 9.76104L6.16778 9.67952L6.43608 9.44178L6.77231 9.1565L6.8742 9.03763L6.89118 8.99687V8.97989V8.96291H6.88439H6.8742L6.85043 8.9697L6.77231 9.03083L6.54476 9.22442L6.27646 9.45877L6.17457 9.52669L6.14061 9.53348H6.12362H6.11683V9.50971L6.12362 9.49273L6.16778 9.44178L6.30023 9.32291L6.4191 9.22442L6.44627 9.20744L6.45306 9.19046V9.17348V9.1565L6.43608 9.14631H6.4191L6.35117 9.16329L6.19155 9.2482L5.99796 9.3399L5.95721 9.35688H5.92324H5.89607L5.88928 9.3399V9.32291V9.31612L5.90626 9.29914L5.97419 9.2414L6.18476 9.12253L6.4191 8.97989L6.48703 8.91196L6.50401 8.88479V8.86102H6.49721H6.48023L6.41231 8.88479L6.21872 8.96291L5.86211 9.09536L5.73645 9.12933H5.71267L5.69569 9.12253L5.67871 9.10555V9.08857L5.6855 9.07838L5.71947 9.04442L5.83154 8.98668L6.15759 8.84404L6.52099 8.69121L6.62967 8.61649L6.66363 8.59271V8.57573V8.55875L6.65684 8.54856H6.63986L6.57872 8.55875L6.42929 8.59951L6.21872 8.65724H6.13381L6.10664 8.65045L6.08966 8.63347V8.62668L6.10664 8.6097L6.14061 8.58253L6.25947 8.54177L6.38514 8.49762L6.42929 8.47384L6.43608 8.45686L6.44627 8.43988L6.43608 8.43309L6.4191 8.4229L6.36136 8.41271L6.18476 8.43309L5.90626 8.44667L5.80437 8.43309L5.77041 8.41271L5.76362 8.38214V8.37196L5.77041 8.36516L5.80437 8.34818L5.90626 8.3312L6.22551 8.30403L6.57872 8.28026L6.69759 8.25309L6.73156 8.2361L6.73835 8.21912L6.74854 8.21233L6.73835 8.19535L6.72477 8.18856L6.66363 8.17158H6.48703L6.25268 8.16139L6.17457 8.13761L6.15079 8.11044L6.14061 8.08667L6.15759 8.06969L6.19155 8.0595H6.31042H6.44627L6.49721 8.04252L6.52778 8.01874V8.01195V8.00176L6.5142 7.99497L6.44627 7.9678L6.24249 7.91685L5.964 7.84893L5.88249 7.80817L5.85532 7.781V7.75723V7.75044L5.86211 7.74025L5.89607 7.73345L6.02513 7.74025L6.37835 7.81497L6.76552 7.89308L6.90137 7.89987L6.94213 7.88289L6.95911 7.8761V7.86591V7.85912L6.94892 7.84893L6.92515 7.82515L6.82326 7.781L6.53797 7.70628L6.27646 7.63157L6.18476 7.5976L6.16778 7.58062L6.15759 7.57043L6.15079 7.56364L6.17457 7.52968L6.19155 7.52289H6.22551L6.38514 7.55685L6.53797 7.58741H6.59571L6.61269 7.58062L6.62967 7.57043V7.56364V7.55685L6.61269 7.53987L6.53797 7.49572L6.29344 7.39383L5.964 7.25118L5.85532 7.18326L5.83154 7.15269V7.11873L5.83834 7.10854L5.84853 7.10175L5.88928 7.10854L6.02513 7.15269L6.41231 7.3293L6.80628 7.5059L6.94213 7.54666L6.98288 7.55685L6.99986 7.54666L7.01005 7.53987V7.52968V7.5127L6.97609 7.47873L6.8742 7.421L6.74854 7.33609L6.70439 7.29533V7.25118L6.72477 7.2342H6.74854L6.81647 7.25118L6.99307 7.34628L7.11194 7.40402L7.1527 7.421H7.15949H7.16968L7.17647 7.39383V7.37685L7.15949 7.36326L7.12892 7.3293L7.08477 7.28515L6.7893 7.11873L6.50401 6.9591L6.41231 6.89118L6.38514 6.85721V6.83004L6.40212 6.82325H6.4191L6.48023 6.84702L6.63986 6.94891L6.85043 7.07458L6.93194 7.10175H6.9659L6.98288 7.09156L6.99986 7.07458L6.99307 7.0508L6.95911 6.97269L6.79948 6.7791L6.62288 6.54476L6.58891 6.49381L6.57872 6.45985L6.57193 6.44287L6.57872 6.42589L6.59571 6.4089L6.61269 6.40211L6.62967 6.4089L6.63986 6.41909L6.71458 6.49381L6.90137 6.75533L7.08477 7.00665L7.15949 7.09156L7.19345 7.11873H7.20364H7.22062L7.2376 7.08476L7.22742 7.04061L7.16968 6.91495L7.11874 6.80627L7.11194 6.7791V6.76212L7.11874 6.74514H7.13571L7.1527 6.73834L7.15949 6.74514L7.16968 6.75533L7.21043 6.81306L7.30553 7.01684L7.43119 7.30213L7.49912 7.39383L7.53308 7.41081H7.56365L7.57384 7.40402V7.39383V7.37685V7.35307L7.52289 7.21722L7.3361 6.80627L7.11194 6.30022L7.05081 6.11343L7.04402 6.05569L7.05081 6.03192L7.061 6.02173H7.07798L7.09496 6.03192L7.11874 6.05569L7.18666 6.17456L7.3361 6.53796L7.47195 6.88099L7.53308 6.98288L7.56365 7.01684H7.57384H7.58063L7.59761 6.99986L7.6078 6.97269L7.59082 6.88099L7.49912 6.61947L7.40402 6.32739L7.39723 6.27645V6.2323V6.21532L7.40402 6.19833L7.421 6.19154H7.43798L7.45497 6.20852L7.48214 6.25947L7.52289 6.41909L7.56365 6.60249L7.59761 6.66363L7.61459 6.68061L7.63157 6.6874L7.64855 6.68061L7.65874 6.67042V6.66363V6.60249L7.64176 6.40211L7.61459 6.15758L7.62478 6.11343V6.07267L7.64176 6.0489L7.66554 6.03871L7.67573 6.0489L7.68252 6.05569L7.6995 6.08965L7.71648 6.21532L7.75044 6.61268L7.7912 7.1425L7.83535 7.31911L7.85233 7.34628L7.85912 7.37005L7.90328 7.37685L7.91007 7.37005L7.92026 7.35307V7.29533L7.89309 7.11873L7.86931 6.8742V6.82325L7.8761 6.78929L7.89309 6.76212L7.92026 6.75533H7.92705L7.93724 6.76212L7.95082 6.79608L7.96781 6.89118L7.98818 6.98288L7.99497 6.98967V6.99986L8.01196 7.00665L8.01875 6.99986L8.03573 6.98288L8.05271 6.9591V6.85721L8.00177 6.55155L7.95082 6.24928V6.14739L7.96101 6.11343L7.98818 6.10664H8.00177L8.01875 6.11343L8.02894 6.1406L8.03573 6.17456L8.0629 6.34098L8.08667 6.49381L8.09686 6.53796L8.11385 6.55155H8.12064H8.13762L8.14781 6.54476L8.16479 6.504L8.20554 6.35796L8.25649 6.16437L8.27347 6.13041L8.29725 6.10664L8.3414 6.09645H8.34819L8.35838 6.11343V6.14739L8.3414 6.25947L8.2463 6.60249L8.1546 6.98288L8.13762 7.10854V7.13571L8.14781 7.1425L8.16479 7.15948H8.17158H8.17837V7.15269L8.20554 7.11873L8.25649 6.98967L8.32441 6.82325L8.3414 6.79608L8.35838 6.7791L8.36517 6.77231H8.37536L8.39234 6.7791L8.39913 6.78929V6.80627L8.39234 6.86401L8.35838 7.01684L8.30743 7.21722V7.29533L8.31423 7.31911L8.33121 7.3293H8.3414H8.34819L8.35838 7.31911V7.30213L8.39913 7.21043L8.50102 6.89797L8.66744 6.39192L8.74555 6.2255L8.78631 6.17456L8.80329 6.16437H8.82027H8.82706V6.18135L8.83725 6.21532L8.81008 6.3172L8.7014 6.63646L8.59272 6.96589L8.56895 7.08476V7.10175L8.57574 7.11873L8.59272 7.13571H8.60291H8.6097L8.61989 7.12552L8.62668 7.11873L8.66744 7.05759L8.77952 6.85721L8.92895 6.5957L8.96292 6.55155L8.99688 6.52098L9.00707 6.51079H9.02405L9.03763 6.52098L9.04782 6.52777V6.53796L9.03763 6.57872L8.99008 6.6874L8.7965 7.01684L8.53498 7.46175L8.46706 7.63157L8.45687 7.68251L8.46706 7.69949L8.47385 7.71647H8.48404L8.49083 7.70628L8.5248 7.67232L8.61989 7.55685L8.86103 7.1425L9.17348 6.64664L9.29235 6.48702L9.33311 6.44287H9.3433H9.36028L9.36707 6.45306V6.45985V6.47004L9.36028 6.48702L9.31613 6.57872L9.1565 6.83004L8.9799 7.10854L8.92895 7.21043L8.92216 7.24439L8.92895 7.26137V7.26816L8.94593 7.27835L8.96292 7.26137L9.02405 7.21722L9.18367 7.04061L9.36028 6.84702L9.41802 6.79608L9.435 6.78929H9.44179L9.45877 6.79608V6.80627V6.82325L9.45198 6.85721L9.39424 6.93872L9.17348 7.19345L8.95612 7.45496L8.8882 7.54666L8.87801 7.56364V7.58062L8.8882 7.5976L8.89499 7.6044H8.90518H8.91197L8.92895 7.5976L9.02405 7.53987L9.29235 7.31911L9.6116 7.06778L9.73047 6.98288L9.77123 6.97269L9.78142 6.96589L9.78821 6.97269Z" fill="#B98DBF"/>
</svg>
