<svg width="16" height="17" viewBox="0 0 16 17" fill="none" xmlns="http://www.w3.org/2000/svg">
<g clip-path="url(#clip0_10_22530)">
<path d="M4.44526 13.0695C4.38591 12.9783 4.33018 12.8857 4.2759 12.7931C3.12075 12.2947 2.14051 11.4632 1.46054 10.4047C0.852207 9.46385 0.499269 8.38084 0.436437 7.26221C0.067478 8.21679 -0.0704975 9.24509 0.0337754 10.2632C0.138048 11.2812 0.481613 12.2602 1.03642 13.1202C1.76833 14.2688 2.8548 15.1474 4.13109 15.6228C5.40738 16.0982 6.80388 16.1445 8.10885 15.7546C6.59636 15.3461 5.29026 14.3888 4.44526 13.0695Z" fill="#FFED00" stroke="#FFED00" stroke-width="0.194318" stroke-miterlimit="10"/>
<path d="M2.8358 4.25727C3.07818 4.09606 3.33164 3.95216 3.59429 3.82664C4.08268 2.94676 4.77486 2.19676 5.61281 1.63949C6.36847 1.13512 7.22589 0.803272 8.1242 0.667497C7.29683 0.470859 6.43778 0.447076 5.6008 0.597636C4.76381 0.748197 3.9669 1.06986 3.25992 1.5425C1.31088 2.84018 0.309213 5.05339 0.436592 7.26226C0.904785 6.0357 1.74335 4.98541 2.8358 4.25727Z" fill="#F9B233" stroke="#F9B233" stroke-width="0.194318" stroke-miterlimit="10"/>
<path d="M1.46062 10.4031C2.1406 11.4616 3.12084 12.2931 4.27599 12.7915C3.74499 11.8726 3.44845 10.837 3.41256 9.77634C2.96647 8.84214 2.75021 7.81483 2.78181 6.78007C2.81341 5.74532 3.09196 4.73311 3.59422 3.82788C3.33159 3.95316 3.07814 4.09682 2.83574 4.25778C1.74328 4.98592 0.904716 6.03622 0.436523 7.26277C0.499727 8.38065 0.85265 9.46287 1.46062 10.4031Z" fill="#F39200" stroke="#F39200" stroke-width="0.194318" stroke-miterlimit="10"/>
<path d="M12.5326 12.3573C12.2902 12.5195 12.0368 12.6646 11.7742 12.7916C10.9844 14.2196 9.66958 15.2839 8.1084 15.7589C8.96178 15.9895 9.85465 16.0346 10.7269 15.8911C11.5992 15.7477 12.4306 15.419 13.1652 14.9273C15.8394 13.1462 16.7325 9.64399 15.3654 6.78882C15.4078 7.88161 15.1698 8.96707 14.6739 9.94181C14.178 10.9166 13.4409 11.7481 12.5326 12.3573Z" fill="#009FE3" stroke="#009FE3" stroke-width="0.194318" stroke-miterlimit="10"/>
<path d="M11.7741 12.7876C10.4971 13.4018 9.04778 13.5584 7.66903 13.2312C6.51898 13.4039 5.34356 13.2518 4.27539 12.7919C4.32967 12.8846 4.3854 12.9772 4.44475 13.0684C5.28975 14.3877 6.59585 15.3449 8.10834 15.7535C9.66952 15.2785 10.9843 14.2141 11.7741 12.7861V12.7876Z" fill="#95C11F" stroke="#95C11F" stroke-width="0.194318" stroke-miterlimit="10"/>
<path d="M3.81306 10.4996C3.66404 10.2672 3.53011 10.0255 3.41211 9.77588C3.448 10.8366 3.74454 11.8721 4.27554 12.791C5.34363 13.2511 6.51906 13.4035 7.66917 13.231C6.07829 12.8549 4.6957 11.8756 3.81306 10.4996Z" fill="#009640" stroke="#009640" stroke-width="0.194318" stroke-miterlimit="10"/>
<path d="M11.9794 3.39971C12.0388 3.4909 12.0945 3.58354 12.1488 3.67618C13.3039 4.17451 14.2842 5.00608 14.9641 6.06454C15.1132 6.29693 15.2471 6.53868 15.3651 6.78828C15.3253 5.61779 14.9684 4.48008 14.3323 3.49669C13.6808 2.4764 12.748 1.6664 11.6464 1.16441C10.5448 0.662415 9.32148 0.489866 8.12402 0.667576C9.71494 1.04361 11.0974 2.0233 11.9794 3.39971Z" fill="#E6007E"/>
<path d="M5.61227 1.63996C4.77397 2.19805 4.08177 2.94907 3.59375 3.83001C4.93177 3.18558 6.45711 3.04453 7.89062 3.43267C9.29558 3.00895 10.8052 3.09612 12.152 3.67874C12.0977 3.58611 12.042 3.49347 11.9827 3.40227C11.1002 2.02428 9.71628 1.04368 8.12366 0.667969C7.22535 0.803744 6.36793 1.13559 5.61227 1.63996Z" fill="#951B81" stroke="#951B81" stroke-width="0.194318" stroke-miterlimit="10"/>
<path d="M6.24509 4.20964C6.75262 3.87082 7.30746 3.60888 7.8916 3.43234C6.4581 3.04419 4.93276 3.18524 3.59473 3.82967C3.09247 4.73491 2.81392 5.74711 2.78232 6.78187C2.75072 7.81662 2.96699 8.84393 3.41307 9.77813C3.37057 8.6854 3.60851 7.59999 4.10424 6.62525C4.59997 5.65051 5.33698 4.81891 6.24509 4.20964Z" fill="#E94E1B" stroke="#E94E1B" stroke-width="0.194318" stroke-miterlimit="10"/>
<path d="M12.1528 3.67749C12.6369 4.51655 12.9271 5.45328 13.0022 6.41905C13.0774 7.38482 12.9355 8.35517 12.587 9.25901C12.6585 10.4883 12.3794 11.7126 11.7822 12.7894C12.0448 12.6625 12.2983 12.5174 12.5407 12.3552C13.447 11.7453 14.1824 10.9138 14.6768 9.93969C15.1712 8.96556 15.4083 7.88117 15.3655 6.78959C15.2475 6.53999 15.1136 6.29824 14.9645 6.06585C14.2855 5.00794 13.3066 4.17643 12.1528 3.67749Z" fill="#53378A" stroke="#662483" stroke-width="0.194318" stroke-miterlimit="10"/>
<path d="M10.1806 12.2606C9.42518 12.765 8.568 13.0968 7.66992 13.2326C9.04876 13.5596 10.4981 13.4027 11.775 12.7882C12.3722 11.7114 12.6513 10.4871 12.5798 9.25781C12.1114 10.4837 11.2729 11.5332 10.1806 12.2606Z" fill="#312783" stroke="#312783" stroke-width="0.347727" stroke-miterlimit="10"/>
<path d="M7.89062 3.43143C9.40323 3.84014 10.7095 4.79733 11.5549 6.11652C12.1629 7.05675 12.5158 8.13896 12.579 9.25684C12.9283 8.35384 13.0712 7.38418 12.9973 6.41882C12.9234 5.45347 12.6346 4.51684 12.152 3.6775C10.8052 3.09488 9.29559 3.00771 7.89062 3.43143Z" fill="#662483" stroke="#662483" stroke-width="0.194318" stroke-miterlimit="10"/>
<path d="M7.66459 13.2362C6.07271 12.8611 4.68927 11.8812 3.80704 10.5041C3.69084 10.3157 3.58759 10.1196 3.498 9.91715C3.47629 9.87155 3.4553 9.82596 3.43286 9.78036C3.35397 7.50997 4.4034 5.42631 6.23954 4.20391C6.74855 3.87318 7.3043 3.62067 7.88823 3.45483C9.39992 3.85425 10.7089 4.80183 11.5605 6.11315C12.1655 7.05502 12.5168 8.13728 12.5803 9.25492C12.1142 10.4834 11.2765 11.5358 10.1839 12.2657C9.42756 12.7704 8.56901 13.1018 7.66966 13.2362H7.66459Z" fill="#29235C"/>
<path d="M7.89073 3.46125C9.40084 3.85832 10.7079 4.80575 11.555 6.11739C12.1612 7.0573 12.5121 8.13883 12.5734 9.25555C12.1072 10.4814 11.2706 11.5315 10.1799 12.2598C9.42462 12.7643 8.5674 13.0962 7.66926 13.2318C6.07851 12.8572 4.69572 11.8788 3.81315 10.5033C3.673 10.2704 3.54825 10.0287 3.4397 9.77954C3.36733 7.62061 4.33932 5.4805 6.24421 4.2125C6.75259 3.88151 7.30755 3.6283 7.89073 3.46125ZM7.89073 3.44678H7.88639C7.30196 3.61285 6.74574 3.86559 6.23625 4.19658C4.39794 5.42043 3.34779 7.50626 3.42595 9.77592L3.49109 9.91343C3.58048 10.116 3.68374 10.3121 3.80013 10.5004C4.68287 11.8822 6.06913 12.8658 7.66492 13.2427H7.67071C8.57084 13.1082 9.43014 12.7766 10.1872 12.2714C11.2804 11.5415 12.119 10.4892 12.5864 9.26062V9.25483C12.5235 8.13585 12.1719 7.05222 11.5659 6.10943C10.7142 4.7976 9.40541 3.84913 7.89362 3.44822L7.89073 3.44678Z" fill="#29235C"/>
<path d="M10.2703 9.47673L10.1067 11.1493H5.4248L5.51455 10.9886L8.36972 5.94413H7.32536C7.18458 5.94311 7.04402 5.95547 6.90559 5.98104C6.76238 6.01122 6.62371 6.05988 6.49305 6.12579C6.33274 6.20644 6.18986 6.31784 6.07256 6.45365C5.92713 6.62287 5.80539 6.81108 5.71068 7.0131L5.833 5.52002H10.1928L7.35865 10.668H8.5825C8.95212 10.6768 9.31499 10.5681 9.6189 10.3575C9.92109 10.1375 10.1485 9.83009 10.2703 9.47673Z" fill="white"/>
</g>
<defs>
<clipPath id="clip0_10_22530">
<rect width="16" height="16" fill="white" transform="translate(0 0.5)"/>
</clipPath>
</defs>
</svg>
